<svg width="31" height="31" viewBox="0 0 31 31" fill="none" xmlns="http://www.w3.org/2000/svg">
<g clip-path="url(#clip0_189_1243)">
<path d="M26.182 4.27914C23.1074 1.33129 19.0818 -0.190186 14.771 -1.7304e-06C6.84665 0.380366 0.380397 6.84662 2.87872e-05 14.771C-0.190155 19.0501 1.33132 23.1074 4.27917 26.2137C7.22702 29.32 11.2209 31 15.5 31C18.6381 31 21.681 30.0491 24.2485 28.3057C24.7873 27.9254 25.1677 27.3231 25.2628 26.6575C25.3579 25.9918 25.1677 25.3579 24.7873 24.8507C24.4704 24.407 24.09 24.1217 23.6145 23.9632C23.9315 23.6462 24.2485 23.3292 24.5338 22.9489C24.819 22.6002 24.9141 22.1564 24.8507 21.7444C24.7873 21.3323 24.5338 20.9519 24.1851 20.6984L20.5716 18.226C20.0011 17.7822 19.1452 17.7822 18.6064 18.226C18.6064 18.226 18.543 18.2894 18.5113 18.3211L17.4336 19.7474C17.2434 20.001 16.7996 20.001 16.6094 19.7474L11.9816 13.2178C11.9816 13.2178 11.8548 12.9325 11.9182 12.774C11.9499 12.6155 12.0767 12.4888 12.2352 12.4571L14.0103 11.7914C14.0103 11.7914 14.0736 11.7597 14.1053 11.728C14.6442 11.3793 14.8978 10.682 14.7393 10.0798L13.6299 5.64213C13.408 4.7546 12.4254 4.24744 11.6013 4.56442C10.3334 5.03988 8.08285 6.24437 7.22702 8.74846C6.40289 11.1892 7.10023 14.2638 9.35075 17.8773C12.7107 23.2975 15.9755 26.0552 19.1452 26.0552C20.1595 26.0552 21.1422 25.7699 22.0614 25.1994C22.0614 25.1994 22.0931 25.1994 22.1248 25.1677C22.41 24.9458 22.7587 24.8507 23.0757 24.9141C23.3927 24.9775 23.7096 25.1677 23.9632 25.5164C24.1851 25.8016 24.3119 26.182 24.2485 26.5307C24.1851 26.911 23.9949 27.2597 23.6779 27.4499C21.2689 29.0982 18.4479 29.9857 15.5 29.9857C11.5062 29.9857 7.79757 28.4008 5.03991 25.5164C2.28224 22.6319 0.855857 18.8282 1.04604 14.8344C1.39471 7.44887 7.4489 1.39468 14.8027 1.04601C18.7966 0.855827 22.6002 2.28221 25.4847 5.03988C28.3692 7.79754 29.954 11.5061 29.954 15.5C29.954 15.7853 30.1759 16.0072 30.4612 16.0072C30.7464 16.0072 30.9683 15.7853 30.9683 15.5C30.9683 11.2209 29.2567 7.25869 26.182 4.27914Z" fill="#AC945D"/>
</g>
<defs>
<clipPath id="clip0_189_1243">
<rect width="31" height="31" fill="white"/>
</clipPath>
</defs>
</svg>
