<svg width="1440" height="73" viewBox="0 0 1440 73" fill="none" xmlns="http://www.w3.org/2000/svg">
<rect width="1440" height="74" fill="#004C75"/>
<mask id="mask0_202_3344" style="mask-type:alpha" maskUnits="userSpaceOnUse" x="0" y="0" width="1440" height="74">
<rect width="1440" height="74" fill="#004C75"/>
</mask>
<g mask="url(#mask0_202_3344)">
<path d="M643.513 55.4897L652.154 44.2631L634.281 39.4991L643.513 55.4897Z" fill="#192747"/>
<path d="M649.026 70.8538L642.566 59.6648L636.519 67.5192" fill="#192747"/>
<path d="M649.618 24.9165L638.394 16.328L633.588 34.1714L649.618 24.9165Z" fill="#192747"/>
<path d="M653.613 25.9686L661.477 31.9836L664.843 19.4849L653.613 25.9686Z" fill="#192747"/>
<path d="M619.024 18.8898L610.383 30.1164L628.257 34.8804L619.024 18.8898Z" fill="#192747"/>
<path d="M613.544 3.58203L620.004 14.771L626.051 6.91656L613.544 3.58203Z" fill="#192747"/>
<path d="M612.919 49.4631L624.143 58.0516L628.949 40.2081L612.919 49.4631Z" fill="#192747"/>
<path d="M608.789 48.4888L600.936 42.4673L597.571 54.966L608.789 48.4888Z" fill="#192747"/>
<path d="M602.562 37.6757L606.79 32.1755L598.036 29.8378L602.562 37.6757Z" fill="#192747"/>
<path d="M636.372 12.5924L630.878 8.37256L638.736 3.83592L636.372 12.5924Z" fill="#192747"/>
<path d="M660.035 36.6247L655.806 42.1248L664.56 44.4625L660.035 36.6247Z" fill="#192747"/>
<path d="M626.224 61.708L631.729 65.9214L623.871 70.458L626.224 61.708Z" fill="#192747"/>
<path d="M626.945 58.8029L640.995 56.9435L631.762 40.9529L626.945 58.8029Z" fill="#192747"/>
<path d="M654.909 56.9013L645.084 58.211L651.544 69.3999" fill="#192747"/>
<path d="M652.898 41.4497L651.072 27.4354L635.042 36.6904L652.898 41.4497Z" fill="#192747"/>
<path d="M650.888 13.6427L652.158 23.4497L663.388 16.966L650.888 13.6427Z" fill="#192747"/>
<path d="M635.592 15.5767L621.542 17.436L630.775 33.4267L635.592 15.5767Z" fill="#192747"/>
<path d="M611.026 5.03579L607.66 17.5345L617.486 16.2247L611.026 5.03579Z" fill="#192747"/>
<path d="M609.639 32.9299L611.465 46.9441L627.495 37.6892L609.639 32.9299Z" fill="#192747"/>
<path d="M611.532 60.8195L610.255 51.0012L599.025 57.4849L611.532 60.8195Z" fill="#192747"/>
<path d="M607.552 29.3669L606.662 22.5038L598.804 27.0404L607.552 29.3669Z" fill="#192747"/>
<path d="M646.063 12.4251L639.185 13.3372L641.538 4.58718L646.063 12.4251Z" fill="#192747"/>
<path d="M655.044 44.9335L655.952 51.8014L663.81 47.2647L655.044 44.9335Z" fill="#192747"/>
<path d="M616.533 61.8753L623.411 60.9632L621.058 69.7132L616.533 61.8753Z" fill="#192747"/>
<path d="M976.513 55.4897L985.154 44.2631L967.281 39.4991L976.513 55.4897Z" fill="#192747"/>
<path d="M982.026 70.8538L975.566 59.6648L969.519 67.5192" fill="#192747"/>
<path d="M982.618 24.9165L971.394 16.328L966.588 34.1714L982.618 24.9165Z" fill="#192747"/>
<path d="M986.613 25.9686L994.477 31.9836L997.843 19.4849L986.613 25.9686Z" fill="#192747"/>
<path d="M952.024 18.8898L943.383 30.1164L961.257 34.8804L952.024 18.8898Z" fill="#192747"/>
<path d="M946.544 3.58203L953.004 14.771L959.051 6.91656L946.544 3.58203Z" fill="#192747"/>
<path d="M945.919 49.4631L957.143 58.0516L961.949 40.2081L945.919 49.4631Z" fill="#192747"/>
<path d="M941.789 48.4888L933.936 42.4673L930.571 54.966L941.789 48.4888Z" fill="#192747"/>
<path d="M935.562 37.6757L939.79 32.1755L931.036 29.8378L935.562 37.6757Z" fill="#192747"/>
<path d="M969.372 12.5924L963.878 8.37256L971.736 3.83592L969.372 12.5924Z" fill="#192747"/>
<path d="M993.035 36.6247L988.806 42.1248L997.56 44.4625L993.035 36.6247Z" fill="#192747"/>
<path d="M959.224 61.708L964.729 65.9214L956.871 70.458L959.224 61.708Z" fill="#192747"/>
<path d="M959.945 58.8029L973.995 56.9435L964.762 40.9529L959.945 58.8029Z" fill="#192747"/>
<path d="M987.909 56.9013L978.084 58.211L984.544 69.3999" fill="#192747"/>
<path d="M985.898 41.4497L984.072 27.4354L968.042 36.6904L985.898 41.4497Z" fill="#192747"/>
<path d="M983.888 13.6427L985.158 23.4497L996.388 16.966L983.888 13.6427Z" fill="#192747"/>
<path d="M968.592 15.5767L954.542 17.436L963.775 33.4267L968.592 15.5767Z" fill="#192747"/>
<path d="M944.026 5.03579L940.66 17.5345L950.486 16.2247L944.026 5.03579Z" fill="#192747"/>
<path d="M942.639 32.9299L944.465 46.9441L960.495 37.6892L942.639 32.9299Z" fill="#192747"/>
<path d="M944.532 60.8195L943.255 51.0012L932.025 57.4849L944.532 60.8195Z" fill="#192747"/>
<path d="M940.552 29.3669L939.662 22.5038L931.804 27.0404L940.552 29.3669Z" fill="#192747"/>
<path d="M979.063 12.4251L972.185 13.3372L974.538 4.58718L979.063 12.4251Z" fill="#192747"/>
<path d="M988.044 44.9335L988.952 51.8014L996.81 47.2647L988.044 44.9335Z" fill="#192747"/>
<path d="M949.533 61.8753L956.411 60.9632L954.058 69.7132L949.533 61.8753Z" fill="#192747"/>
<path d="M308.513 55.4897L317.154 44.2631L299.281 39.4991L308.513 55.4897Z" fill="#192747"/>
<path d="M314.026 70.8538L307.566 59.6648L301.519 67.5192" fill="#192747"/>
<path d="M314.618 24.9165L303.394 16.328L298.588 34.1714L314.618 24.9165Z" fill="#192747"/>
<path d="M318.613 25.9686L326.477 31.9836L329.843 19.4849L318.613 25.9686Z" fill="#192747"/>
<path d="M284.024 18.8898L275.383 30.1164L293.257 34.8804L284.024 18.8898Z" fill="#192747"/>
<path d="M278.544 3.58203L285.004 14.771L291.051 6.91656L278.544 3.58203Z" fill="#192747"/>
<path d="M277.919 49.4631L289.143 58.0516L293.949 40.2081L277.919 49.4631Z" fill="#192747"/>
<path d="M273.789 48.4888L265.936 42.4673L262.571 54.966L273.789 48.4888Z" fill="#192747"/>
<path d="M267.562 37.6757L271.79 32.1755L263.036 29.8378L267.562 37.6757Z" fill="#192747"/>
<path d="M301.372 12.5924L295.878 8.37256L303.736 3.83592L301.372 12.5924Z" fill="#192747"/>
<path d="M325.035 36.6247L320.806 42.1248L329.56 44.4625L325.035 36.6247Z" fill="#192747"/>
<path d="M291.224 61.708L296.729 65.9214L288.871 70.458L291.224 61.708Z" fill="#192747"/>
<path d="M291.945 58.8029L305.995 56.9435L296.762 40.9529L291.945 58.8029Z" fill="#192747"/>
<path d="M319.909 56.9013L310.084 58.211L316.544 69.3999" fill="#192747"/>
<path d="M317.898 41.4497L316.072 27.4354L300.042 36.6904L317.898 41.4497Z" fill="#192747"/>
<path d="M315.888 13.6427L317.158 23.4497L328.388 16.966L315.888 13.6427Z" fill="#192747"/>
<path d="M300.592 15.5767L286.542 17.436L295.775 33.4267L300.592 15.5767Z" fill="#192747"/>
<path d="M276.026 5.03579L272.66 17.5345L282.486 16.2247L276.026 5.03579Z" fill="#192747"/>
<path d="M274.639 32.9299L276.465 46.9441L292.495 37.6892L274.639 32.9299Z" fill="#192747"/>
<path d="M276.532 60.8195L275.255 51.0012L264.025 57.4849L276.532 60.8195Z" fill="#192747"/>
<path d="M272.552 29.3669L271.662 22.5038L263.804 27.0404L272.552 29.3669Z" fill="#192747"/>
<path d="M311.063 12.4251L304.185 13.3372L306.538 4.58718L311.063 12.4251Z" fill="#192747"/>
<path d="M320.044 44.9335L320.952 51.8014L328.81 47.2647L320.044 44.9335Z" fill="#192747"/>
<path d="M281.533 61.8753L288.411 60.9632L286.058 69.7132L281.533 61.8753Z" fill="#192747"/>
<path d="M-14.3872 25.9686L-6.52285 31.9836L-3.15713 19.4849L-14.3872 25.9686Z" fill="#192747"/>
<path d="M1309.51 55.4897L1318.15 44.2631L1300.28 39.4991L1309.51 55.4897Z" fill="#192747"/>
<path d="M1315.03 70.8538L1308.57 59.6648L1302.52 67.5192" fill="#192747"/>
<path d="M1315.62 24.9165L1304.39 16.328L1299.59 34.1714L1315.62 24.9165Z" fill="#192747"/>
<path d="M1319.61 25.9686L1327.48 31.9836L1330.84 19.4849L1319.61 25.9686Z" fill="#192747"/>
<path d="M1285.02 18.8898L1276.38 30.1164L1294.26 34.8804L1285.02 18.8898Z" fill="#192747"/>
<path d="M1279.54 3.58203L1286 14.771L1292.05 6.91656L1279.54 3.58203Z" fill="#192747"/>
<path d="M1278.92 49.4631L1290.14 58.0516L1294.95 40.2081L1278.92 49.4631Z" fill="#192747"/>
<path d="M1274.79 48.4888L1266.94 42.4673L1263.57 54.966L1274.79 48.4888Z" fill="#192747"/>
<path d="M1268.56 37.6757L1272.79 32.1755L1264.04 29.8378L1268.56 37.6757Z" fill="#192747"/>
<path d="M1302.37 12.5924L1296.88 8.37256L1304.74 3.83592L1302.37 12.5924Z" fill="#192747"/>
<path d="M1326.03 36.6247L1321.81 42.1248L1330.56 44.4625L1326.03 36.6247Z" fill="#192747"/>
<path d="M1292.22 61.708L1297.73 65.9214L1289.87 70.458L1292.22 61.708Z" fill="#192747"/>
<path d="M1292.94 58.8029L1306.99 56.9435L1297.76 40.9529L1292.94 58.8029Z" fill="#192747"/>
<path d="M1320.91 56.9013L1311.08 58.211L1317.54 69.3999" fill="#192747"/>
<path d="M1318.9 41.4497L1317.07 27.4354L1301.04 36.6904L1318.9 41.4497Z" fill="#192747"/>
<path d="M1316.89 13.6427L1318.16 23.4497L1329.39 16.966L1316.89 13.6427Z" fill="#192747"/>
<path d="M1301.59 15.5767L1287.54 17.436L1296.77 33.4267L1301.59 15.5767Z" fill="#192747"/>
<path d="M1277.03 5.03579L1273.66 17.5345L1283.49 16.2247L1277.03 5.03579Z" fill="#192747"/>
<path d="M1275.64 32.9299L1277.46 46.9441L1293.49 37.6892L1275.64 32.9299Z" fill="#192747"/>
<path d="M1277.53 60.8195L1276.25 51.0012L1265.02 57.4849L1277.53 60.8195Z" fill="#192747"/>
<path d="M1273.55 29.3669L1272.66 22.5038L1264.8 27.0404L1273.55 29.3669Z" fill="#192747"/>
<path d="M1312.06 12.4251L1305.19 13.3372L1307.54 4.58718L1312.06 12.4251Z" fill="#192747"/>
<path d="M1321.04 44.9335L1321.95 51.8014L1329.81 47.2647L1321.04 44.9335Z" fill="#192747"/>
<path d="M1282.53 61.8753L1289.41 60.9632L1287.06 69.7132L1282.53 61.8753Z" fill="#192747"/>
<path d="M717.513 33.4897L726.154 22.2631L708.281 17.4991L717.513 33.4897Z" fill="#192747"/>
<path d="M723.026 48.8538L716.566 37.6648L710.519 45.5192" fill="#192747"/>
<path d="M723.618 2.91645L712.394 -5.67204L707.588 12.1714L723.618 2.91645Z" fill="#192747"/>
<path d="M727.613 3.96863L735.477 9.9836L738.843 -2.51506L727.613 3.96863Z" fill="#192747"/>
<path d="M693.024 -3.11017L684.383 8.1164L702.257 12.8804L693.024 -3.11017Z" fill="#192747"/>
<path d="M686.919 27.4631L698.143 36.0516L702.949 18.2081L686.919 27.4631Z" fill="#192747"/>
<path d="M682.789 26.4888L674.936 20.4673L671.571 32.966L682.789 26.4888Z" fill="#192747"/>
<path d="M676.562 15.6757L680.79 10.1755L672.036 7.83783L676.562 15.6757Z" fill="#192747"/>
<path d="M734.035 14.6247L729.806 20.1248L738.56 22.4625L734.035 14.6247Z" fill="#192747"/>
<path d="M700.224 39.708L705.729 43.9214L697.871 48.458L700.224 39.708Z" fill="#192747"/>
<path d="M700.945 36.8029L714.995 34.9435L705.762 18.9529L700.945 36.8029Z" fill="#192747"/>
<path d="M728.909 34.9013L719.084 36.211L725.544 47.3999" fill="#192747"/>
<path d="M726.898 19.4497L725.072 5.43537L709.042 14.6904L726.898 19.4497Z" fill="#192747"/>
<path d="M724.888 -8.35731L726.158 1.44966L737.388 -5.03403L724.888 -8.35731Z" fill="#192747"/>
<path d="M709.592 -6.42332L695.542 -4.56396L704.775 11.4267L709.592 -6.42332Z" fill="#192747"/>
<path d="M683.639 10.9299L685.465 24.9441L701.495 15.6892L683.639 10.9299Z" fill="#192747"/>
<path d="M685.532 38.8195L684.255 29.0012L673.025 35.4849L685.532 38.8195Z" fill="#192747"/>
<path d="M681.552 7.36688L680.662 0.50377L672.804 5.04041L681.552 7.36688Z" fill="#192747"/>
<path d="M729.044 22.9335L729.952 29.8014L737.81 25.2647L729.044 22.9335Z" fill="#192747"/>
<path d="M690.533 39.8753L697.411 38.9632L695.058 47.7132L690.533 39.8753Z" fill="#192747"/>
<path d="M1050.51 33.4897L1059.15 22.2631L1041.28 17.4991L1050.51 33.4897Z" fill="#192747"/>
<path d="M1056.03 48.8538L1049.57 37.6648L1043.52 45.5192" fill="#192747"/>
<path d="M1056.62 2.91645L1045.39 -5.67204L1040.59 12.1714L1056.62 2.91645Z" fill="#192747"/>
<path d="M1060.61 3.96863L1068.48 9.9836L1071.84 -2.51506L1060.61 3.96863Z" fill="#192747"/>
<path d="M1026.02 -3.11017L1017.38 8.1164L1035.26 12.8804L1026.02 -3.11017Z" fill="#192747"/>
<path d="M1019.92 27.4631L1031.14 36.0516L1035.95 18.2081L1019.92 27.4631Z" fill="#192747"/>
<path d="M1015.79 26.4888L1007.94 20.4673L1004.57 32.966L1015.79 26.4888Z" fill="#192747"/>
<path d="M1009.56 15.6757L1013.79 10.1755L1005.04 7.83783L1009.56 15.6757Z" fill="#192747"/>
<path d="M1067.03 14.6247L1062.81 20.1248L1071.56 22.4625L1067.03 14.6247Z" fill="#192747"/>
<path d="M1033.22 39.708L1038.73 43.9214L1030.87 48.458L1033.22 39.708Z" fill="#192747"/>
<path d="M1033.94 36.8029L1047.99 34.9435L1038.76 18.9529L1033.94 36.8029Z" fill="#192747"/>
<path d="M1061.91 34.9013L1052.08 36.211L1058.54 47.3999" fill="#192747"/>
<path d="M1059.9 19.4497L1058.07 5.43537L1042.04 14.6904L1059.9 19.4497Z" fill="#192747"/>
<path d="M1057.89 -8.35731L1059.16 1.44966L1070.39 -5.03403L1057.89 -8.35731Z" fill="#192747"/>
<path d="M1042.59 -6.42332L1028.54 -4.56396L1037.77 11.4267L1042.59 -6.42332Z" fill="#192747"/>
<path d="M1016.64 10.9299L1018.46 24.9441L1034.49 15.6892L1016.64 10.9299Z" fill="#192747"/>
<path d="M1018.53 38.8195L1017.25 29.0012L1006.02 35.4849L1018.53 38.8195Z" fill="#192747"/>
<path d="M1014.55 7.36688L1013.66 0.50377L1005.8 5.04041L1014.55 7.36688Z" fill="#192747"/>
<path d="M1062.04 22.9335L1062.95 29.8014L1070.81 25.2647L1062.04 22.9335Z" fill="#192747"/>
<path d="M1023.53 39.8753L1030.41 38.9632L1028.06 47.7132L1023.53 39.8753Z" fill="#192747"/>
<path d="M382.513 33.4897L391.154 22.2631L373.281 17.4991L382.513 33.4897Z" fill="#192747"/>
<path d="M388.026 48.8538L381.566 37.6648L375.519 45.5192" fill="#192747"/>
<path d="M388.618 2.91645L377.394 -5.67204L372.588 12.1714L388.618 2.91645Z" fill="#192747"/>
<path d="M392.613 3.96863L400.477 9.9836L403.843 -2.51506L392.613 3.96863Z" fill="#192747"/>
<path d="M358.024 -3.11017L349.383 8.1164L367.257 12.8804L358.024 -3.11017Z" fill="#192747"/>
<path d="M351.919 27.4631L363.143 36.0516L367.949 18.2081L351.919 27.4631Z" fill="#192747"/>
<path d="M347.789 26.4888L339.936 20.4673L336.571 32.966L347.789 26.4888Z" fill="#192747"/>
<path d="M341.562 15.6757L345.79 10.1755L337.036 7.83783L341.562 15.6757Z" fill="#192747"/>
<path d="M399.035 14.6247L394.806 20.1248L403.56 22.4625L399.035 14.6247Z" fill="#192747"/>
<path d="M365.224 39.708L370.729 43.9214L362.871 48.458L365.224 39.708Z" fill="#192747"/>
<path d="M365.945 36.8029L379.995 34.9435L370.762 18.9529L365.945 36.8029Z" fill="#192747"/>
<path d="M393.909 34.9013L384.084 36.211L390.544 47.3999" fill="#192747"/>
<path d="M391.898 19.4497L390.072 5.43537L374.042 14.6904L391.898 19.4497Z" fill="#192747"/>
<path d="M389.888 -8.35731L391.158 1.44966L402.388 -5.03403L389.888 -8.35731Z" fill="#192747"/>
<path d="M374.592 -6.42332L360.542 -4.56396L369.775 11.4267L374.592 -6.42332Z" fill="#192747"/>
<path d="M348.639 10.9299L350.465 24.9441L366.495 15.6892L348.639 10.9299Z" fill="#192747"/>
<path d="M350.532 38.8195L349.255 29.0012L338.025 35.4849L350.532 38.8195Z" fill="#192747"/>
<path d="M346.552 7.36688L345.662 0.50377L337.804 5.04041L346.552 7.36688Z" fill="#192747"/>
<path d="M394.044 22.9335L394.952 29.8014L402.81 25.2647L394.044 22.9335Z" fill="#192747"/>
<path d="M355.533 39.8753L362.411 38.9632L360.058 47.7132L355.533 39.8753Z" fill="#192747"/>
<path d="M49.5127 33.4897L58.1544 22.2631L40.2805 17.4991L49.5127 33.4897Z" fill="#192747"/>
<path d="M55.0257 48.8538L48.5658 37.6648L42.5187 45.5192" fill="#192747"/>
<path d="M55.618 2.91645L44.3942 -5.67204L39.5878 12.1714L55.618 2.91645Z" fill="#192747"/>
<path d="M59.6128 3.96863L67.4771 9.9836L70.8429 -2.51506L59.6128 3.96863Z" fill="#192747"/>
<path d="M25.0244 -3.11017L16.3827 8.1164L34.2566 12.8804L25.0244 -3.11017Z" fill="#192747"/>
<path d="M18.9192 27.4631L30.1429 36.0516L34.9493 18.2081L18.9192 27.4631Z" fill="#192747"/>
<path d="M14.7895 26.4888L6.93637 20.4673L3.57065 32.966L14.7895 26.4888Z" fill="#192747"/>
<path d="M8.56158 15.6757L12.7903 10.1755L4.03638 7.83783L8.56158 15.6757Z" fill="#192747"/>
<path d="M66.0349 14.6247L61.8061 20.1248L70.5601 22.4625L66.0349 14.6247Z" fill="#192747"/>
<path d="M32.2239 39.708L37.7291 43.9214L29.8714 48.458L32.2239 39.708Z" fill="#192747"/>
<path d="M32.9448 36.8029L46.9946 34.9435L37.7624 18.9529L32.9448 36.8029Z" fill="#192747"/>
<path d="M60.9094 34.9013L51.0837 36.211L57.5437 47.3999" fill="#192747"/>
<path d="M58.8981 19.4497L57.0721 5.43537L41.042 14.6904L58.8981 19.4497Z" fill="#192747"/>
<path d="M56.8879 -8.35731L58.1584 1.44966L69.3885 -5.03403L56.8879 -8.35731Z" fill="#192747"/>
<path d="M41.5923 -6.42332L27.5425 -4.56396L36.7747 11.4267L41.5923 -6.42332Z" fill="#192747"/>
<path d="M15.6388 10.9299L17.4648 24.9441L33.4949 15.6892L15.6388 10.9299Z" fill="#192747"/>
<path d="M17.5319 38.8195L16.255 29.0012L5.0249 35.4849L17.5319 38.8195Z" fill="#192747"/>
<path d="M13.5519 7.36688L12.6621 0.50377L4.80444 5.04041L13.5519 7.36688Z" fill="#192747"/>
<path d="M61.0445 22.9335L61.952 29.8014L69.8097 25.2647L61.0445 22.9335Z" fill="#192747"/>
<path d="M22.5332 39.8753L29.4109 38.9632L27.0584 47.7132L22.5332 39.8753Z" fill="#192747"/>
<path d="M1383.51 33.4897L1392.15 22.2631L1374.28 17.4991L1383.51 33.4897Z" fill="#192747"/>
<path d="M1389.03 48.8538L1382.57 37.6648L1376.52 45.5192" fill="#192747"/>
<path d="M1389.62 2.91645L1378.39 -5.67204L1373.59 12.1714L1389.62 2.91645Z" fill="#192747"/>
<path d="M1393.61 3.96863L1401.48 9.9836L1404.84 -2.51506L1393.61 3.96863Z" fill="#192747"/>
<path d="M1359.02 -3.11017L1350.38 8.1164L1368.26 12.8804L1359.02 -3.11017Z" fill="#192747"/>
<path d="M1352.92 27.4631L1364.14 36.0516L1368.95 18.2081L1352.92 27.4631Z" fill="#192747"/>
<path d="M1348.79 26.4888L1340.94 20.4673L1337.57 32.966L1348.79 26.4888Z" fill="#192747"/>
<path d="M1342.56 15.6757L1346.79 10.1755L1338.04 7.83783L1342.56 15.6757Z" fill="#192747"/>
<path d="M1400.03 14.6247L1395.81 20.1248L1404.56 22.4625L1400.03 14.6247Z" fill="#192747"/>
<path d="M1366.22 39.708L1371.73 43.9214L1363.87 48.458L1366.22 39.708Z" fill="#192747"/>
<path d="M1366.94 36.8029L1380.99 34.9435L1371.76 18.9529L1366.94 36.8029Z" fill="#192747"/>
<path d="M1394.91 34.9013L1385.08 36.211L1391.54 47.3999" fill="#192747"/>
<path d="M1392.9 19.4497L1391.07 5.43537L1375.04 14.6904L1392.9 19.4497Z" fill="#192747"/>
<path d="M1390.89 -8.35731L1392.16 1.44966L1403.39 -5.03403L1390.89 -8.35731Z" fill="#192747"/>
<path d="M1375.59 -6.42332L1361.54 -4.56396L1370.77 11.4267L1375.59 -6.42332Z" fill="#192747"/>
<path d="M1349.64 10.9299L1351.46 24.9441L1367.49 15.6892L1349.64 10.9299Z" fill="#192747"/>
<path d="M1351.53 38.8195L1350.25 29.0012L1339.02 35.4849L1351.53 38.8195Z" fill="#192747"/>
<path d="M1347.55 7.36688L1346.66 0.50377L1338.8 5.04041L1347.55 7.36688Z" fill="#192747"/>
<path d="M1395.04 22.9335L1395.95 29.8014L1403.81 25.2647L1395.04 22.9335Z" fill="#192747"/>
<path d="M1356.53 39.8753L1363.41 38.9632L1361.06 47.7132L1356.53 39.8753Z" fill="#192747"/>
<path d="M763.178 79.6756L757.776 66.5784L744.714 79.6756L763.178 79.6756Z" fill="#192747"/>
<path d="M739.753 59.1017L726.704 64.5275L739.753 77.6117L739.753 59.1017Z" fill="#192747"/>
<path d="M742.662 56.1681L751.803 52.3649L742.662 43.2007L742.662 56.1681Z" fill="#192747"/>
<path d="M703.24 79.6757L716.16 79.6757L712.381 70.5116L703.24 79.6757Z" fill="#192747"/>
<path d="M722.458 64.4107L716.056 67.0587L716.056 57.9854L722.458 64.4107Z" fill="#192747"/>
<path d="M755.101 55.9344L757.75 62.3467L764.152 55.9344L755.101 55.9344Z" fill="#192747"/>
<path d="M770.099 70.5116L766.32 79.6757L779.24 79.6757" fill="#192747"/>
<path d="M755.712 64.5276L742.662 59.1018L742.662 77.6118L755.712 64.5276Z" fill="#192747"/>
<path d="M730.625 52.365L739.753 56.1682L739.753 43.2008L730.625 52.365Z" fill="#192747"/>
<path d="M724.652 66.5784L719.237 79.6755L737.702 79.6755L724.652 66.5784Z" fill="#192747"/>
<path d="M727.158 55.9346L724.509 62.3469L718.108 55.9346L727.158 55.9346Z" fill="#192747"/>
<path d="M759.802 64.4107L766.203 67.0587L766.203 57.9854L759.802 64.4107Z" fill="#192747"/>
<path d="M1096.18 79.6756L1090.78 66.5784L1077.71 79.6756L1096.18 79.6756Z" fill="#192747"/>
<path d="M1072.75 59.1017L1059.7 64.5275L1072.75 77.6117L1072.75 59.1017Z" fill="#192747"/>
<path d="M1075.66 56.1681L1084.8 52.3649L1075.66 43.2007L1075.66 56.1681Z" fill="#192747"/>
<path d="M1036.24 79.6757L1049.16 79.6757L1045.38 70.5116L1036.24 79.6757Z" fill="#192747"/>
<path d="M1055.46 64.4107L1049.06 67.0587L1049.06 57.9854L1055.46 64.4107Z" fill="#192747"/>
<path d="M1088.1 55.9344L1090.75 62.3467L1097.15 55.9344L1088.1 55.9344Z" fill="#192747"/>
<path d="M1103.1 70.5116L1099.32 79.6757L1112.24 79.6757" fill="#192747"/>
<path d="M1088.71 64.5276L1075.66 59.1018L1075.66 77.6118L1088.71 64.5276Z" fill="#192747"/>
<path d="M1063.62 52.365L1072.75 56.1682L1072.75 43.2008L1063.62 52.365Z" fill="#192747"/>
<path d="M1057.65 66.5784L1052.24 79.6755L1070.7 79.6755L1057.65 66.5784Z" fill="#192747"/>
<path d="M1060.16 55.9346L1057.51 62.3469L1051.11 55.9346L1060.16 55.9346Z" fill="#192747"/>
<path d="M1092.8 64.4107L1099.2 67.0587L1099.2 57.9854L1092.8 64.4107Z" fill="#192747"/>
<path d="M428.178 79.6756L422.776 66.5784L409.714 79.6756L428.178 79.6756Z" fill="#192747"/>
<path d="M404.753 59.1017L391.704 64.5275L404.753 77.6117L404.753 59.1017Z" fill="#192747"/>
<path d="M407.662 56.1681L416.803 52.3649L407.662 43.2007L407.662 56.1681Z" fill="#192747"/>
<path d="M368.24 79.6757L381.16 79.6757L377.381 70.5116L368.24 79.6757Z" fill="#192747"/>
<path d="M387.458 64.4107L381.056 67.0587L381.056 57.9854L387.458 64.4107Z" fill="#192747"/>
<path d="M420.101 55.9344L422.75 62.3467L429.152 55.9344L420.101 55.9344Z" fill="#192747"/>
<path d="M435.099 70.5116L431.32 79.6757L444.24 79.6757" fill="#192747"/>
<path d="M420.712 64.5276L407.662 59.1018L407.662 77.6118L420.712 64.5276Z" fill="#192747"/>
<path d="M395.625 52.365L404.753 56.1682L404.753 43.2008L395.625 52.365Z" fill="#192747"/>
<path d="M389.652 66.5784L384.237 79.6755L402.702 79.6755L389.652 66.5784Z" fill="#192747"/>
<path d="M392.158 55.9346L389.509 62.3469L383.108 55.9346L392.158 55.9346Z" fill="#192747"/>
<path d="M424.802 64.4107L431.203 67.0587L431.203 57.9854L424.802 64.4107Z" fill="#192747"/>
<path d="M95.1779 79.6756L89.7762 66.5784L76.7135 79.6756L95.1779 79.6756Z" fill="#192747"/>
<path d="M71.7533 59.1017L58.7036 64.5275L71.7533 77.6117L71.7533 59.1017Z" fill="#192747"/>
<path d="M74.662 56.1681L83.8033 52.3649L74.662 43.2007L74.662 56.1681Z" fill="#192747"/>
<path d="M35.24 79.6757L48.1599 79.6757L44.3813 70.5116L35.24 79.6757Z" fill="#192747"/>
<path d="M54.4577 64.4107L48.0562 67.0587L48.0562 57.9854L54.4577 64.4107Z" fill="#192747"/>
<path d="M87.1014 55.9344L89.7503 62.3467L96.1518 55.9344L87.1014 55.9344Z" fill="#192747"/>
<path d="M102.099 70.5116L98.3202 79.6757L111.24 79.6757" fill="#192747"/>
<path d="M87.7116 64.5276L74.6619 59.1018L74.6619 77.6118L87.7116 64.5276Z" fill="#192747"/>
<path d="M62.625 52.365L71.7533 56.1682L71.7533 43.2008L62.625 52.365Z" fill="#192747"/>
<path d="M56.652 66.5784L51.2373 79.6755L69.7017 79.6755L56.652 66.5784Z" fill="#192747"/>
<path d="M59.1579 55.9346L56.509 62.3469L50.1075 55.9346L59.1579 55.9346Z" fill="#192747"/>
<path d="M91.8019 64.4107L98.2034 67.0587L98.2034 57.9854L91.8019 64.4107Z" fill="#192747"/>
<path d="M1429.18 79.6756L1423.78 66.5784L1410.71 79.6756L1429.18 79.6756Z" fill="#192747"/>
<path d="M1405.75 59.1017L1392.7 64.5275L1405.75 77.6117L1405.75 59.1017Z" fill="#192747"/>
<path d="M1408.66 56.1681L1417.8 52.3649L1408.66 43.2007L1408.66 56.1681Z" fill="#192747"/>
<path d="M1369.24 79.6757L1382.16 79.6757L1378.38 70.5116L1369.24 79.6757Z" fill="#192747"/>
<path d="M1388.46 64.4107L1382.06 67.0587L1382.06 57.9854L1388.46 64.4107Z" fill="#192747"/>
<path d="M1421.1 55.9344L1423.75 62.3467L1430.15 55.9344L1421.1 55.9344Z" fill="#192747"/>
<path d="M1436.1 70.5116L1432.32 79.6757L1445.24 79.6757" fill="#192747"/>
<path d="M1421.71 64.5276L1408.66 59.1018L1408.66 77.6118L1421.71 64.5276Z" fill="#192747"/>
<path d="M1396.62 52.365L1405.75 56.1682L1405.75 43.2008L1396.62 52.365Z" fill="#192747"/>
<path d="M1390.65 66.5784L1385.24 79.6755L1403.7 79.6755L1390.65 66.5784Z" fill="#192747"/>
<path d="M1393.16 55.9346L1390.51 62.3469L1384.11 55.9346L1393.16 55.9346Z" fill="#192747"/>
<path d="M1425.8 64.4107L1432.2 67.0587L1432.2 57.9854L1425.8 64.4107Z" fill="#192747"/>
<path d="M840.178 75.6756L834.776 62.5784L821.714 75.6756L840.178 75.6756Z" fill="#192747"/>
<path d="M816.753 55.1017L803.704 60.5275L816.753 73.6117L816.753 55.1017Z" fill="#192747"/>
<path d="M819.662 52.1681L828.803 48.3649L819.662 39.2007L819.662 52.1681Z" fill="#192747"/>
<path d="M780.24 75.6757L793.16 75.6757L789.381 66.5116L780.24 75.6757Z" fill="#192747"/>
<path d="M799.458 60.4107L793.056 63.0587L793.056 53.9854L799.458 60.4107Z" fill="#192747"/>
<path d="M832.101 51.9344L834.75 58.3467L841.152 51.9344L832.101 51.9344Z" fill="#192747"/>
<path d="M847.099 66.5116L843.32 75.6757L856.24 75.6757" fill="#192747"/>
<path d="M832.712 60.5276L819.662 55.1018L819.662 73.6118L832.712 60.5276Z" fill="#192747"/>
<path d="M807.625 48.365L816.753 52.1682L816.753 39.2008L807.625 48.365Z" fill="#192747"/>
<path d="M801.652 62.5784L796.237 75.6755L814.702 75.6755L801.652 62.5784Z" fill="#192747"/>
<path d="M804.158 51.9346L801.509 58.3469L795.108 51.9346L804.158 51.9346Z" fill="#192747"/>
<path d="M836.802 60.4107L843.203 63.0587L843.203 53.9854L836.802 60.4107Z" fill="#192747"/>
<path d="M1173.18 75.6756L1167.78 62.5784L1154.71 75.6756L1173.18 75.6756Z" fill="#192747"/>
<path d="M1149.75 55.1017L1136.7 60.5275L1149.75 73.6117L1149.75 55.1017Z" fill="#192747"/>
<path d="M1152.66 52.1681L1161.8 48.3649L1152.66 39.2007L1152.66 52.1681Z" fill="#192747"/>
<path d="M1113.24 75.6757L1126.16 75.6757L1122.38 66.5116L1113.24 75.6757Z" fill="#192747"/>
<path d="M1132.46 60.4107L1126.06 63.0587L1126.06 53.9854L1132.46 60.4107Z" fill="#192747"/>
<path d="M1165.1 51.9344L1167.75 58.3467L1174.15 51.9344L1165.1 51.9344Z" fill="#192747"/>
<path d="M1180.1 66.5116L1176.32 75.6757L1189.24 75.6757" fill="#192747"/>
<path d="M1165.71 60.5276L1152.66 55.1018L1152.66 73.6118L1165.71 60.5276Z" fill="#192747"/>
<path d="M1140.62 48.365L1149.75 52.1682L1149.75 39.2008L1140.62 48.365Z" fill="#192747"/>
<path d="M1134.65 62.5784L1129.24 75.6755L1147.7 75.6755L1134.65 62.5784Z" fill="#192747"/>
<path d="M1137.16 51.9346L1134.51 58.3469L1128.11 51.9346L1137.16 51.9346Z" fill="#192747"/>
<path d="M1169.8 60.4107L1176.2 63.0587L1176.2 53.9854L1169.8 60.4107Z" fill="#192747"/>
<path d="M505.178 75.6756L499.776 62.5784L486.714 75.6756L505.178 75.6756Z" fill="#192747"/>
<path d="M481.753 55.1017L468.704 60.5275L481.753 73.6117L481.753 55.1017Z" fill="#192747"/>
<path d="M484.662 52.1681L493.803 48.3649L484.662 39.2007L484.662 52.1681Z" fill="#192747"/>
<path d="M445.24 75.6757L458.16 75.6757L454.381 66.5116L445.24 75.6757Z" fill="#192747"/>
<path d="M464.458 60.4107L458.056 63.0587L458.056 53.9854L464.458 60.4107Z" fill="#192747"/>
<path d="M497.101 51.9344L499.75 58.3467L506.152 51.9344L497.101 51.9344Z" fill="#192747"/>
<path d="M512.099 66.5116L508.32 75.6757L521.24 75.6757" fill="#192747"/>
<path d="M497.712 60.5276L484.662 55.1018L484.662 73.6118L497.712 60.5276Z" fill="#192747"/>
<path d="M472.625 48.365L481.753 52.1682L481.753 39.2008L472.625 48.365Z" fill="#192747"/>
<path d="M466.652 62.5784L461.237 75.6755L479.702 75.6755L466.652 62.5784Z" fill="#192747"/>
<path d="M469.158 51.9346L466.509 58.3469L460.108 51.9346L469.158 51.9346Z" fill="#192747"/>
<path d="M501.802 60.4107L508.203 63.0587L508.203 53.9854L501.802 60.4107Z" fill="#192747"/>
<path d="M172.178 75.6756L166.776 62.5784L153.714 75.6756L172.178 75.6756Z" fill="#192747"/>
<path d="M148.753 55.1017L135.704 60.5275L148.753 73.6117L148.753 55.1017Z" fill="#192747"/>
<path d="M151.662 52.1681L160.803 48.3649L151.662 39.2007L151.662 52.1681Z" fill="#192747"/>
<path d="M112.24 75.6757L125.16 75.6757L121.381 66.5116L112.24 75.6757Z" fill="#192747"/>
<path d="M131.458 60.4107L125.056 63.0587L125.056 53.9854L131.458 60.4107Z" fill="#192747"/>
<path d="M164.101 51.9344L166.75 58.3467L173.152 51.9344L164.101 51.9344Z" fill="#192747"/>
<path d="M179.099 66.5116L175.32 75.6757L188.24 75.6757" fill="#192747"/>
<path d="M164.712 60.5276L151.662 55.1018L151.662 73.6118L164.712 60.5276Z" fill="#192747"/>
<path d="M139.625 48.365L148.753 52.1682L148.753 39.2008L139.625 48.365Z" fill="#192747"/>
<path d="M133.652 62.5784L128.237 75.6755L146.702 75.6755L133.652 62.5784Z" fill="#192747"/>
<path d="M136.158 51.9346L133.509 58.3469L127.108 51.9346L136.158 51.9346Z" fill="#192747"/>
<path d="M168.802 60.4107L175.203 63.0587L175.203 53.9854L168.802 60.4107Z" fill="#192747"/>
<path d="M907.183 46.4586L908.278 32.3337L890.708 38.1197L907.183 46.4586Z" fill="#192747"/>
<path d="M920.2 56.3068L908.673 50.472L907.906 60.3548" fill="#192747"/>
<path d="M895.575 17.5233L881.481 16.4707L887.215 34.0381L895.575 17.5233Z" fill="#192747"/>
<path d="M899.494 16.2196L909.368 16.9547L905.351 4.64995L899.494 16.2196Z" fill="#192747"/>
<path d="M866.665 29.2083L865.57 43.3333L883.139 37.5472L866.665 29.2083Z" fill="#192747"/>
<path d="M853.705 19.3895L865.233 25.2244L866 15.3416L853.705 19.3895Z" fill="#192747"/>
<path d="M878.273 58.1436L892.367 59.1961L886.633 41.6287L878.273 58.1436Z" fill="#192747"/>
<path d="M874.283 59.5862L864.415 58.8396L868.433 71.1443L874.283 59.5862Z" fill="#192747"/>
<path d="M863.156 53.9392L863.688 47.0218L855.081 49.8518L863.156 53.9392Z" fill="#192747"/>
<path d="M877.745 14.449L870.838 13.9205L874.936 5.8252L877.745 14.449Z" fill="#192747"/>
<path d="M910.699 21.629L910.166 28.5464L918.773 25.7163L910.699 21.629Z" fill="#192747"/>
<path d="M896.109 61.1194L903.022 61.6363L898.924 69.7315L896.109 61.1194Z" fill="#192747"/>
<path d="M895.123 58.2929L905.869 49.0528L889.395 40.7139L895.123 58.2929Z" fill="#192747"/>
<path d="M917.496 41.4079L909.986 47.8778L921.513 53.7127" fill="#192747"/>
<path d="M907.362 29.5714L898.169 18.837L889.81 35.3518L907.362 29.5714Z" fill="#192747"/>
<path d="M890.473 7.39018L896.899 14.906L902.756 3.33638L890.473 7.39018Z" fill="#192747"/>
<path d="M878.724 17.374L867.978 26.6141L884.453 34.953L878.724 17.374Z" fill="#192747"/>
<path d="M852.392 21.9836L856.41 34.2884L863.92 27.8185L852.392 21.9836Z" fill="#192747"/>
<path d="M866.485 46.0956L875.678 56.83L884.038 40.3152L866.485 46.0956Z" fill="#192747"/>
<path d="M883.322 68.41L876.884 60.8883L871.028 72.4579L883.322 68.41Z" fill="#192747"/>
<path d="M862.79 44.2538L858.292 38.9945L854.194 47.0898L862.79 44.2538Z" fill="#192747"/>
<path d="M885.767 9.00935L880.508 13.5342L877.692 4.92201L885.767 9.00935Z" fill="#192747"/>
<path d="M911.064 31.3144L915.58 36.568L919.678 28.4728L911.064 31.3144Z" fill="#192747"/>
<path d="M888.087 66.559L893.346 62.0341L896.162 70.6463L888.087 66.559Z" fill="#192747"/>
<path d="M1240.18 46.4586L1241.28 32.3337L1223.71 38.1197L1240.18 46.4586Z" fill="#192747"/>
<path d="M1253.2 56.3068L1241.67 50.472L1240.91 60.3548" fill="#192747"/>
<path d="M1228.57 17.5233L1214.48 16.4707L1220.22 34.0381L1228.57 17.5233Z" fill="#192747"/>
<path d="M1232.49 16.2196L1242.37 16.9547L1238.35 4.64995L1232.49 16.2196Z" fill="#192747"/>
<path d="M1199.67 29.2083L1198.57 43.3333L1216.14 37.5472L1199.67 29.2083Z" fill="#192747"/>
<path d="M1186.71 19.3895L1198.23 25.2244L1199 15.3416L1186.71 19.3895Z" fill="#192747"/>
<path d="M1211.27 58.1436L1225.37 59.1961L1219.63 41.6287L1211.27 58.1436Z" fill="#192747"/>
<path d="M1207.28 59.5862L1197.42 58.8396L1201.43 71.1443L1207.28 59.5862Z" fill="#192747"/>
<path d="M1196.16 53.9392L1196.69 47.0218L1188.08 49.8518L1196.16 53.9392Z" fill="#192747"/>
<path d="M1210.75 14.449L1203.84 13.9205L1207.94 5.8252L1210.75 14.449Z" fill="#192747"/>
<path d="M1243.7 21.629L1243.17 28.5464L1251.77 25.7163L1243.7 21.629Z" fill="#192747"/>
<path d="M1229.11 61.1194L1236.02 61.6363L1231.92 69.7315L1229.11 61.1194Z" fill="#192747"/>
<path d="M1228.12 58.2929L1238.87 49.0528L1222.4 40.7139L1228.12 58.2929Z" fill="#192747"/>
<path d="M1250.5 41.4079L1242.99 47.8778L1254.51 53.7127" fill="#192747"/>
<path d="M1240.36 29.5714L1231.17 18.837L1222.81 35.3518L1240.36 29.5714Z" fill="#192747"/>
<path d="M1223.47 7.39018L1229.9 14.906L1235.76 3.33638L1223.47 7.39018Z" fill="#192747"/>
<path d="M1211.72 17.374L1200.98 26.6141L1217.45 34.953L1211.72 17.374Z" fill="#192747"/>
<path d="M1185.39 21.9836L1189.41 34.2884L1196.92 27.8185L1185.39 21.9836Z" fill="#192747"/>
<path d="M1199.49 46.0956L1208.68 56.83L1217.04 40.3152L1199.49 46.0956Z" fill="#192747"/>
<path d="M1216.32 68.41L1209.88 60.8883L1204.03 72.4579L1216.32 68.41Z" fill="#192747"/>
<path d="M1195.79 44.2538L1191.29 38.9945L1187.19 47.0898L1195.79 44.2538Z" fill="#192747"/>
<path d="M1218.77 9.00935L1213.51 13.5342L1210.69 4.92201L1218.77 9.00935Z" fill="#192747"/>
<path d="M1244.06 31.3144L1248.58 36.568L1252.68 28.4728L1244.06 31.3144Z" fill="#192747"/>
<path d="M1221.09 66.559L1226.35 62.0341L1229.16 70.6463L1221.09 66.559Z" fill="#192747"/>
<path d="M572.183 46.4586L573.278 32.3337L555.708 38.1197L572.183 46.4586Z" fill="#192747"/>
<path d="M585.2 56.3068L573.673 50.472L572.906 60.3548" fill="#192747"/>
<path d="M560.575 17.5233L546.481 16.4707L552.215 34.0381L560.575 17.5233Z" fill="#192747"/>
<path d="M564.495 16.2196L574.368 16.9547L570.351 4.64995L564.495 16.2196Z" fill="#192747"/>
<path d="M531.665 29.2083L530.57 43.3333L548.139 37.5472L531.665 29.2083Z" fill="#192747"/>
<path d="M518.705 19.3895L530.233 25.2244L531 15.3416L518.705 19.3895Z" fill="#192747"/>
<path d="M543.273 58.1436L557.367 59.1961L551.633 41.6287L543.273 58.1436Z" fill="#192747"/>
<path d="M539.283 59.5862L529.415 58.8396L533.433 71.1443L539.283 59.5862Z" fill="#192747"/>
<path d="M528.156 53.9392L528.688 47.0218L520.081 49.8518L528.156 53.9392Z" fill="#192747"/>
<path d="M542.746 14.449L535.838 13.9205L539.936 5.8252L542.746 14.449Z" fill="#192747"/>
<path d="M575.699 21.629L575.166 28.5464L583.774 25.7163L575.699 21.629Z" fill="#192747"/>
<path d="M561.109 61.1194L568.022 61.6363L563.924 69.7315L561.109 61.1194Z" fill="#192747"/>
<path d="M560.123 58.2929L570.869 49.0528L554.395 40.7139L560.123 58.2929Z" fill="#192747"/>
<path d="M582.496 41.4079L574.986 47.8778L586.513 53.7127" fill="#192747"/>
<path d="M572.362 29.5714L563.169 18.837L554.81 35.3518L572.362 29.5714Z" fill="#192747"/>
<path d="M555.473 7.39018L561.899 14.906L567.756 3.33638L555.473 7.39018Z" fill="#192747"/>
<path d="M543.724 17.374L532.978 26.6141L549.453 34.953L543.724 17.374Z" fill="#192747"/>
<path d="M517.392 21.9836L521.41 34.2884L528.92 27.8185L517.392 21.9836Z" fill="#192747"/>
<path d="M531.485 46.0956L540.678 56.83L549.038 40.3152L531.485 46.0956Z" fill="#192747"/>
<path d="M548.322 68.41L541.884 60.8883L536.028 72.4579L548.322 68.41Z" fill="#192747"/>
<path d="M527.79 44.2538L523.292 38.9945L519.194 47.0898L527.79 44.2538Z" fill="#192747"/>
<path d="M550.767 9.00935L545.508 13.5342L542.692 4.92201L550.767 9.00935Z" fill="#192747"/>
<path d="M576.064 31.3144L580.58 36.568L584.678 28.4728L576.064 31.3144Z" fill="#192747"/>
<path d="M553.087 66.559L558.346 62.0341L561.162 70.6463L553.087 66.559Z" fill="#192747"/>
<path d="M239.183 46.4586L240.278 32.3337L222.708 38.1197L239.183 46.4586Z" fill="#192747"/>
<path d="M252.2 56.3068L240.673 50.472L239.906 60.3548" fill="#192747"/>
<path d="M227.575 17.5233L213.481 16.4707L219.215 34.0381L227.575 17.5233Z" fill="#192747"/>
<path d="M231.495 16.2196L241.368 16.9547L237.351 4.64995L231.495 16.2196Z" fill="#192747"/>
<path d="M198.665 29.2083L197.57 43.3333L215.139 37.5472L198.665 29.2083Z" fill="#192747"/>
<path d="M185.705 19.3895L197.233 25.2244L198 15.3416L185.705 19.3895Z" fill="#192747"/>
<path d="M210.273 58.1436L224.367 59.1961L218.633 41.6287L210.273 58.1436Z" fill="#192747"/>
<path d="M206.283 59.5862L196.415 58.8396L200.433 71.1443L206.283 59.5862Z" fill="#192747"/>
<path d="M195.156 53.9392L195.688 47.0218L187.081 49.8518L195.156 53.9392Z" fill="#192747"/>
<path d="M209.746 14.449L202.838 13.9205L206.936 5.8252L209.746 14.449Z" fill="#192747"/>
<path d="M242.699 21.629L242.166 28.5464L250.774 25.7163L242.699 21.629Z" fill="#192747"/>
<path d="M228.109 61.1194L235.022 61.6363L230.924 69.7315L228.109 61.1194Z" fill="#192747"/>
<path d="M227.123 58.2929L237.869 49.0528L221.395 40.7139L227.123 58.2929Z" fill="#192747"/>
<path d="M249.496 41.4079L241.986 47.8778L253.513 53.7127" fill="#192747"/>
<path d="M239.362 29.5714L230.169 18.837L221.81 35.3518L239.362 29.5714Z" fill="#192747"/>
<path d="M222.473 7.39018L228.899 14.906L234.756 3.33638L222.473 7.39018Z" fill="#192747"/>
<path d="M210.724 17.374L199.978 26.6141L216.453 34.953L210.724 17.374Z" fill="#192747"/>
<path d="M184.392 21.9836L188.409 34.2884L195.919 27.8185L184.392 21.9836Z" fill="#192747"/>
<path d="M198.485 46.0956L207.678 56.83L216.038 40.3152L198.485 46.0956Z" fill="#192747"/>
<path d="M215.322 68.41L208.884 60.8883L203.028 72.4579L215.322 68.41Z" fill="#192747"/>
<path d="M194.79 44.2538L190.292 38.9945L186.194 47.0898L194.79 44.2538Z" fill="#192747"/>
<path d="M217.767 9.00935L212.508 13.5342L209.692 4.92201L217.767 9.00935Z" fill="#192747"/>
<path d="M243.064 31.3144L247.58 36.568L251.678 28.4728L243.064 31.3144Z" fill="#192747"/>
<path d="M220.087 66.559L225.346 62.0341L228.162 70.6463L220.087 66.559Z" fill="#192747"/>
<path d="M842.475 -0.476132L833.245 3.09481L842.165 12.4746L842.475 -0.476132Z" fill="#192747"/>
<path d="M854.431 3.6008L845.383 -0.419601L845.073 12.5441L854.431 3.6008Z" fill="#192747"/>
<path d="M857.935 -0.119904L860.737 -6.46713L866.983 0.0961678L857.935 -0.119904Z" fill="#192747"/>
<path d="M1175.47 -0.476132L1166.25 3.09481L1175.17 12.4746L1175.47 -0.476132Z" fill="#192747"/>
<path d="M1187.43 3.6008L1178.38 -0.419601L1178.07 12.5441L1187.43 3.6008Z" fill="#192747"/>
<path d="M1190.94 -0.119904L1193.74 -6.46713L1199.98 0.0961678L1190.94 -0.119904Z" fill="#192747"/>
<path d="M507.475 -0.476132L498.245 3.09481L507.165 12.4746L507.475 -0.476132Z" fill="#192747"/>
<path d="M519.431 3.6008L510.383 -0.419601L510.073 12.5441L519.431 3.6008Z" fill="#192747"/>
<path d="M522.935 -0.119904L525.737 -6.46713L531.983 0.0961678L522.935 -0.119904Z" fill="#192747"/>
<path d="M174.475 -0.476132L165.245 3.09481L174.165 12.4746L174.475 -0.476132Z" fill="#192747"/>
<path d="M186.43 3.6008L177.383 -0.419601L177.073 12.5441L186.43 3.6008Z" fill="#192747"/>
<path d="M189.935 -0.119904L192.737 -6.46713L198.983 0.0961678L189.935 -0.119904Z" fill="#192747"/>
<path d="M678.776 78.1313L688.374 75.7015L680.667 65.3024L678.776 78.1313Z" fill="#192747"/>
<path d="M667.422 72.6137L675.898 77.7072L677.789 64.8784L667.422 72.6137Z" fill="#192747"/>
<path d="M1011.78 78.1313L1021.37 75.7015L1013.67 65.3024L1011.78 78.1313Z" fill="#192747"/>
<path d="M1000.42 72.6137L1008.9 77.7072L1010.79 64.8784L1000.42 72.6137Z" fill="#192747"/>
<path d="M343.776 78.1313L353.374 75.7015L345.667 65.3024L343.776 78.1313Z" fill="#192747"/>
<path d="M332.422 72.6137L340.898 77.7072L342.789 64.8784L332.422 72.6137Z" fill="#192747"/>
<path d="M10.7759 78.1313L20.374 75.7015L12.6665 65.3024L10.7759 78.1313Z" fill="#192747"/>
<path d="M-0.577932 72.6137L7.89832 77.7072L9.78897 64.8784L-0.577932 72.6137Z" fill="#192747"/>
<path d="M1344.78 78.1313L1354.37 75.7015L1346.67 65.3024L1344.78 78.1313Z" fill="#192747"/>
<path d="M1333.42 72.6137L1341.9 77.7072L1343.79 64.8784L1333.42 72.6137Z" fill="#192747"/>
<path d="M799.99 21.872L801.861 7.82863L784 12.6398L799.99 21.872Z" fill="#192747"/>
<path d="M812.447 32.4211L801.258 25.9612L799.948 35.7868" fill="#192747"/>
<path d="M789.991 -7.65789L775.977 -9.48388L780.736 8.37223L789.991 -7.65789Z" fill="#192747"/>
<path d="M760.483 2.41969L758.612 16.463L776.473 11.6519L760.483 2.41969Z" fill="#192747"/>
<path d="M770.482 31.9495L784.496 33.7755L779.737 15.9194L770.482 31.9495Z" fill="#192747"/>
<path d="M766.419 33.1706L756.607 31.8824L759.941 44.3894L766.419 33.1706Z" fill="#192747"/>
<path d="M755.618 26.9201L756.531 20.0425L747.781 22.3949L755.618 26.9201Z" fill="#192747"/>
<path d="M804.866 -2.72675L803.954 4.15091L812.704 1.79845L804.866 -2.72675Z" fill="#192747"/>
<path d="M788.127 35.9015L795.001 36.7978L790.464 44.6555L788.127 35.9015Z" fill="#192747"/>
<path d="M787.298 33.0252L798.536 24.39L782.546 15.1578L787.298 33.0252Z" fill="#192747"/>
<path d="M810.566 17.3961L802.711 23.4431L813.9 29.9031" fill="#192747"/>
<path d="M801.098 5.02021L792.51 -6.20352L783.255 9.8266L801.098 5.02021Z" fill="#192747"/>
<path d="M773.174 -8.73354L761.937 -0.0983734L777.927 9.13382L773.174 -8.73354Z" fill="#192747"/>
<path d="M746.629 -5.57893L749.963 6.92808L757.818 0.881L746.629 -5.57893Z" fill="#192747"/>
<path d="M759.375 19.2715L767.963 30.4952L777.218 14.4651L759.375 19.2715Z" fill="#192747"/>
<path d="M774.959 42.478L768.944 34.6137L762.46 45.8438L774.959 42.478Z" fill="#192747"/>
<path d="M755.786 17.2293L751.584 11.7306L747.047 19.5883L755.786 17.2293Z" fill="#192747"/>
<path d="M804.699 6.96414L808.919 12.4581L813.455 4.60044L804.699 6.96414Z" fill="#192747"/>
<path d="M779.818 40.8918L785.318 36.663L787.656 45.417L779.818 40.8918Z" fill="#192747"/>
<path d="M1132.99 21.872L1134.86 7.82863L1117 12.6398L1132.99 21.872Z" fill="#192747"/>
<path d="M1145.45 32.4211L1134.26 25.9612L1132.95 35.7868" fill="#192747"/>
<path d="M1122.99 -7.65789L1108.98 -9.48388L1113.74 8.37223L1122.99 -7.65789Z" fill="#192747"/>
<path d="M1093.48 2.41969L1091.61 16.463L1109.47 11.6519L1093.48 2.41969Z" fill="#192747"/>
<path d="M1103.48 31.9495L1117.5 33.7755L1112.74 15.9194L1103.48 31.9495Z" fill="#192747"/>
<path d="M1099.42 33.1706L1089.61 31.8824L1092.94 44.3894L1099.42 33.1706Z" fill="#192747"/>
<path d="M1088.62 26.9201L1089.53 20.0425L1080.78 22.3949L1088.62 26.9201Z" fill="#192747"/>
<path d="M1137.87 -2.72675L1136.95 4.15091L1145.7 1.79845L1137.87 -2.72675Z" fill="#192747"/>
<path d="M1121.13 35.9015L1128 36.7978L1123.46 44.6555L1121.13 35.9015Z" fill="#192747"/>
<path d="M1120.3 33.0252L1131.54 24.39L1115.55 15.1578L1120.3 33.0252Z" fill="#192747"/>
<path d="M1143.57 17.3961L1135.71 23.4431L1146.9 29.9031" fill="#192747"/>
<path d="M1134.1 5.02021L1125.51 -6.20352L1116.25 9.8266L1134.1 5.02021Z" fill="#192747"/>
<path d="M1106.17 -8.73354L1094.94 -0.0983734L1110.93 9.13382L1106.17 -8.73354Z" fill="#192747"/>
<path d="M1079.63 -5.57893L1082.96 6.92808L1090.82 0.881L1079.63 -5.57893Z" fill="#192747"/>
<path d="M1092.37 19.2715L1100.96 30.4952L1110.22 14.4651L1092.37 19.2715Z" fill="#192747"/>
<path d="M1107.96 42.478L1101.94 34.6137L1095.46 45.8438L1107.96 42.478Z" fill="#192747"/>
<path d="M1088.79 17.2293L1084.58 11.7306L1080.05 19.5883L1088.79 17.2293Z" fill="#192747"/>
<path d="M1137.7 6.96414L1141.92 12.4581L1146.46 4.60044L1137.7 6.96414Z" fill="#192747"/>
<path d="M1112.82 40.8918L1118.32 36.663L1120.66 45.417L1112.82 40.8918Z" fill="#192747"/>
<path d="M464.99 21.872L466.861 7.82863L449 12.6398L464.99 21.872Z" fill="#192747"/>
<path d="M477.447 32.4211L466.258 25.9612L464.948 35.7868" fill="#192747"/>
<path d="M454.991 -7.65789L440.977 -9.48388L445.736 8.37223L454.991 -7.65789Z" fill="#192747"/>
<path d="M425.483 2.41969L423.612 16.463L441.473 11.6519L425.483 2.41969Z" fill="#192747"/>
<path d="M435.482 31.9495L449.496 33.7755L444.737 15.9194L435.482 31.9495Z" fill="#192747"/>
<path d="M431.419 33.1706L421.607 31.8824L424.941 44.3894L431.419 33.1706Z" fill="#192747"/>
<path d="M420.618 26.9201L421.531 20.0425L412.781 22.3949L420.618 26.9201Z" fill="#192747"/>
<path d="M469.866 -2.72675L468.954 4.15091L477.704 1.79845L469.866 -2.72675Z" fill="#192747"/>
<path d="M453.127 35.9015L460.001 36.7978L455.464 44.6555L453.127 35.9015Z" fill="#192747"/>
<path d="M452.298 33.0252L463.536 24.39L447.546 15.1578L452.298 33.0252Z" fill="#192747"/>
<path d="M475.566 17.3961L467.711 23.4431L478.9 29.9031" fill="#192747"/>
<path d="M466.098 5.02021L457.51 -6.20352L448.255 9.8266L466.098 5.02021Z" fill="#192747"/>
<path d="M438.174 -8.73354L426.937 -0.0983734L442.927 9.13382L438.174 -8.73354Z" fill="#192747"/>
<path d="M411.629 -5.57893L414.963 6.92808L422.818 0.881L411.629 -5.57893Z" fill="#192747"/>
<path d="M424.375 19.2715L432.963 30.4952L442.218 14.4651L424.375 19.2715Z" fill="#192747"/>
<path d="M439.959 42.478L433.944 34.6137L427.46 45.8438L439.959 42.478Z" fill="#192747"/>
<path d="M420.786 17.2293L416.584 11.7306L412.047 19.5883L420.786 17.2293Z" fill="#192747"/>
<path d="M469.699 6.96414L473.919 12.4581L478.455 4.60044L469.699 6.96414Z" fill="#192747"/>
<path d="M444.818 40.8918L450.318 36.663L452.656 45.417L444.818 40.8918Z" fill="#192747"/>
<path d="M131.99 21.872L133.861 7.82863L116 12.6398L131.99 21.872Z" fill="#192747"/>
<path d="M144.447 32.4211L133.258 25.9612L131.948 35.7868" fill="#192747"/>
<path d="M121.991 -7.65789L107.977 -9.48388L112.736 8.37223L121.991 -7.65789Z" fill="#192747"/>
<path d="M92.4827 2.41969L90.6121 16.463L108.473 11.6519L92.4827 2.41969Z" fill="#192747"/>
<path d="M102.482 31.9495L116.496 33.7755L111.737 15.9194L102.482 31.9495Z" fill="#192747"/>
<path d="M98.4185 33.1706L88.6067 31.8824L91.9413 44.3894L98.4185 33.1706Z" fill="#192747"/>
<path d="M87.6184 26.9201L88.5305 20.0425L79.7805 22.3949L87.6184 26.9201Z" fill="#192747"/>
<path d="M136.866 -2.72675L135.954 4.15091L144.704 1.79845L136.866 -2.72675Z" fill="#192747"/>
<path d="M120.127 35.9015L127.001 36.7978L122.464 44.6555L120.127 35.9015Z" fill="#192747"/>
<path d="M119.298 33.0252L130.536 24.39L114.546 15.1578L119.298 33.0252Z" fill="#192747"/>
<path d="M142.566 17.3961L134.711 23.4431L145.9 29.9031" fill="#192747"/>
<path d="M133.098 5.02021L124.51 -6.20352L115.255 9.8266L133.098 5.02021Z" fill="#192747"/>
<path d="M105.174 -8.73354L93.9365 -0.0983734L109.927 9.13382L105.174 -8.73354Z" fill="#192747"/>
<path d="M78.6287 -5.57893L81.9632 6.92808L89.8176 0.881L78.6287 -5.57893Z" fill="#192747"/>
<path d="M91.3746 19.2715L99.9631 30.4952L109.218 14.4651L91.3746 19.2715Z" fill="#192747"/>
<path d="M106.959 42.478L100.944 34.6137L94.4602 45.8438L106.959 42.478Z" fill="#192747"/>
<path d="M87.7858 17.2293L83.5836 11.7306L79.047 19.5883L87.7858 17.2293Z" fill="#192747"/>
<path d="M136.699 6.96414L140.919 12.4581L145.455 4.60044L136.699 6.96414Z" fill="#192747"/>
<path d="M111.818 40.8918L117.318 36.663L119.656 45.417L111.818 40.8918Z" fill="#192747"/>
<path d="M1455.99 -7.65789L1441.98 -9.48388L1446.74 8.37223L1455.99 -7.65789Z" fill="#192747"/>
<path d="M1426.48 2.41969L1424.61 16.463L1442.47 11.6519L1426.48 2.41969Z" fill="#192747"/>
<path d="M1436.48 31.9495L1450.5 33.7755L1445.74 15.9194L1436.48 31.9495Z" fill="#192747"/>
<path d="M1432.42 33.1706L1422.61 31.8824L1425.94 44.3894L1432.42 33.1706Z" fill="#192747"/>
<path d="M1421.62 26.9201L1422.53 20.0425L1413.78 22.3949L1421.62 26.9201Z" fill="#192747"/>
<path d="M1439.17 -8.73354L1427.94 -0.0983734L1443.93 9.13382L1439.17 -8.73354Z" fill="#192747"/>
<path d="M1412.63 -5.57893L1415.96 6.92808L1423.82 0.881L1412.63 -5.57893Z" fill="#192747"/>
<path d="M1425.37 19.2715L1433.96 30.4952L1443.22 14.4651L1425.37 19.2715Z" fill="#192747"/>
<path d="M1440.96 42.478L1434.94 34.6137L1428.46 45.8438L1440.96 42.478Z" fill="#192747"/>
<path d="M1421.79 17.2293L1417.58 11.7306L1413.05 19.5883L1421.79 17.2293Z" fill="#192747"/>
</g>
<rect width="1440" height="74" fill="#174274" fill-opacity="0.83"/>
</svg>
