<svg width="14" height="26" viewBox="0 0 14 26" fill="none" xmlns="http://www.w3.org/2000/svg">
<g clip-path="url(#clip0_202_3355)">
<path d="M10.4831 4.32216H13.5266C13.7971 4.32216 13.9662 4.15464 13.9662 3.8866V0.435567C13.9662 0.167526 13.7971 0 13.5266 0H10.0435C6.7971 0 4.36232 2.41237 4.36232 5.62887V9.51546H0.439614C0.169082 9.51546 0 9.68299 0 9.95103V13.4021C0 13.6701 0.169082 13.8376 0.439614 13.8376H4.36232V25.5309C4.36232 25.799 4.5314 25.9665 4.80193 25.9665H8.28502C8.55556 25.9665 8.72464 25.799 8.72464 25.5309V13.8376H12.6473C12.8164 13.8376 12.9855 13.6701 13.087 13.5026L13.9662 10.0515C13.9662 10.0515 13.9662 9.78351 13.8647 9.71649C13.7633 9.61598 13.6957 9.54897 13.5266 9.54897H8.72464V6.09794C8.72464 5.15979 9.50242 4.35567 10.4831 4.35567V4.32216Z" fill="white"/>
</g>
<defs>
<clipPath id="clip0_202_3355">
<rect width="14" height="26" fill="white"/>
</clipPath>
</defs>
</svg>
