<svg width="26" height="26" viewBox="0 0 26 26" fill="none" xmlns="http://www.w3.org/2000/svg">
<g clip-path="url(#clip0_202_3357)">
<path d="M7.75494 5.20655H12.6139V0.196472C10.6188 0.458437 8.849 2.39043 7.75494 5.23929V5.20655Z" fill="white"/>
<path d="M12.6139 12.5416V6.12343H7.401C6.75744 7.95718 6.40348 10.1511 6.30695 12.5416H12.6139Z" fill="white"/>
<path d="M19.7896 12.5416C19.7896 10.1511 19.3391 7.95718 18.6955 6.12343H13.4827V12.5416H19.7896Z" fill="white"/>
<path d="M13.5148 0.196472V5.23929H18.3737C17.2797 2.39043 15.5099 0.491183 13.5148 0.196472Z" fill="white"/>
<path d="M19.8861 18.9597H24.6485C25.4529 17.3224 26 15.4887 26 13.4584H20.594C20.594 15.3904 20.3366 17.2897 19.8861 18.9597Z" fill="white"/>
<path d="M12.6139 13.4584H6.30695C6.30695 15.4887 6.56437 17.2897 7.01487 18.9597H12.5173V13.4584H12.6139Z" fill="white"/>
<path d="M5.40594 12.5416C5.40594 10.2494 5.85644 8.05542 6.40347 6.12343H1.89851C0.707921 8.05542 0.0965347 10.1511 0 12.5416H5.40594Z" fill="white"/>
<path d="M5.40594 13.4584H0C0.0965347 15.4887 0.54703 17.2897 1.35149 18.9597H6.11386C5.7599 17.3224 5.4703 15.3904 5.40594 13.4584Z" fill="white"/>
<path d="M6.46783 19.8766H1.99506C3.89357 23.0856 7.04704 25.3778 10.7154 26C8.91337 24.9849 7.401 22.7909 6.50001 19.8766H6.46783Z" fill="white"/>
<path d="M6.75741 5.20655C7.6584 2.71788 9.10642 0.916877 10.7153 0C7.30444 0.556675 4.4084 2.55416 2.50989 5.20655H6.72523H6.75741Z" fill="white"/>
<path d="M19.6287 19.8766C18.7277 22.7909 17.1832 25.0176 15.4134 26C19.1139 25.2796 22.2674 22.9874 24.1337 19.8766H19.6287Z" fill="white"/>
<path d="M12.6139 25.8363V19.8766H7.401C8.49506 23.2494 10.4579 25.4761 12.6139 25.8363Z" fill="white"/>
<path d="M19.3391 5.20655H23.5544C21.6559 2.55416 18.6955 0.523929 15.349 0C16.9579 0.916877 18.3094 2.75063 19.3069 5.20655H19.3391Z" fill="white"/>
<path d="M19.6287 6.12343C20.2723 8.05542 20.6262 10.2494 20.6262 12.5416H26.0322C25.9357 10.1511 25.3243 8.05542 24.1337 6.12343H19.6287Z" fill="white"/>
<path d="M18.7277 19.8766H13.5148V25.8363C15.6708 25.4761 17.6658 23.2821 18.7277 19.8766Z" fill="white"/>
<path d="M13.5148 13.4584V18.9597H19.0173C19.4678 17.3224 19.7252 15.4887 19.7252 13.4584H13.5148Z" fill="white"/>
</g>
<defs>
<clipPath id="clip0_202_3357">
<rect width="26" height="26" fill="white"/>
</clipPath>
</defs>
</svg>
