<svg width="26" height="26" viewBox="0 0 26 26" fill="none" xmlns="http://www.w3.org/2000/svg">
<g clip-path="url(#clip0_202_3351)">
<path d="M22.0799 0H3.8866C3.2835 0 2.68041 0.167526 2.14433 0.435567C1.9768 0.435567 1.87629 0.536083 1.80928 0.603093C0.670103 1.3067 0 2.51289 0 3.8866V22.0799C0 24.2577 1.74227 25.9665 3.8866 25.9665H22.0799C24.2577 25.9665 25.9665 24.2242 25.9665 22.0799V3.8866C25.9665 1.70876 24.2242 0 22.0799 0ZM1.74227 1.80928V4.75773C1.74227 5.02577 1.90979 5.1933 2.17783 5.1933C2.44588 5.1933 2.6134 5.02577 2.6134 4.75773V1.20619C2.88144 1.03866 3.14948 0.938144 3.48454 0.871134V4.75773C3.48454 5.02577 3.65206 5.1933 3.9201 5.1933C4.18814 5.1933 4.35567 5.02577 4.35567 4.75773V0.871134H5.2268V4.75773C5.2268 5.02577 5.39433 5.1933 5.66237 5.1933C5.93041 5.1933 6.09794 5.02577 6.09794 4.75773V0.871134H22.1134C23.7552 0.871134 25.1624 2.24485 25.1624 3.9201V7.8067H18.6624C18.4948 7.8067 18.3273 7.90722 18.2268 8.07474C18.1263 8.24227 18.1263 8.40979 18.3273 8.51031C19.366 9.71649 19.9691 11.3582 19.9691 13C19.9691 16.8196 16.8531 19.9356 13.0335 19.9356C9.21392 19.9356 6.09794 16.8196 6.09794 13C6.09794 11.3582 6.70103 9.7835 7.73969 8.51031C7.84021 8.40979 7.90722 8.24227 7.84021 8.07474C7.7732 7.90722 7.57217 7.8067 7.40464 7.8067H0.871134V3.9201C0.871134 3.14948 1.20619 2.34536 1.74227 1.84278V1.80928Z" fill="white"/>
<path d="M18.6289 6.06443H22.08C22.348 6.06443 22.5155 5.8969 22.5155 5.62886V2.17783C22.5155 1.90979 22.348 1.74226 22.08 1.74226H18.6289C18.3609 1.74226 18.1934 1.90979 18.1934 2.17783V5.62886C18.1934 5.8969 18.3609 6.06443 18.6289 6.06443Z" fill="white"/>
<path d="M13 19.0644C16.384 19.0644 19.0644 16.384 19.0644 13C19.0644 9.61598 16.384 6.93556 13 6.93556C9.61596 6.93556 6.93555 9.61598 6.93555 13C6.93555 16.384 9.61596 19.0644 13 19.0644ZM13 10.3866C14.4742 10.3866 15.6134 11.5258 15.6134 13C15.6134 14.4742 14.4742 15.6134 13 15.6134C11.5258 15.6134 10.3866 14.4742 10.3866 13C10.3866 11.5258 11.5258 10.3866 13 10.3866Z" fill="white"/>
</g>
<defs>
<clipPath id="clip0_202_3351">
<rect width="26" height="26" fill="white"/>
</clipPath>
</defs>
</svg>
