<svg width="25" height="26" viewBox="0 0 25 26" fill="none" xmlns="http://www.w3.org/2000/svg">
<g clip-path="url(#clip0_202_3346)">
<path d="M5.58902 8.65544H0.435074C0.167336 8.65544 0 8.82384 0 9.09327V25.5622C0 25.8316 0.167336 26 0.435074 26H5.58902C5.85676 26 6.0241 25.8316 6.0241 25.5622V9.09327C6.0241 8.82384 5.85676 8.65544 5.58902 8.65544Z" fill="white"/>
<path d="M19.7456 7.81348C17.838 7.81348 15.8634 8.58809 14.6586 9.46374V9.12695C14.6586 8.85752 14.4913 8.68912 14.2235 8.68912H9.0696C8.80186 8.68912 8.63452 8.85752 8.63452 9.12695V25.5959C8.63452 25.8653 8.80186 26.0337 9.0696 26.0337H14.2235C14.4913 26.0337 14.6586 25.8653 14.6586 25.5959V14.0777C15.8634 12.9663 17.5033 12.6969 18.3735 13.6399C18.8086 14.0777 18.9759 14.7513 18.9759 15.6269V25.5959C18.9759 25.8653 19.1432 26.0337 19.411 26.0337H24.5649C24.8327 26.0337 25 25.8653 25 25.5959V14.3135C24.8996 8.68912 21.6533 7.81348 19.7456 7.81348Z" fill="white"/>
<path d="M3.01205 0C1.37216 0 0 1.38083 0 3.03109C0 4.68135 1.37216 6.06218 3.01205 6.06218C4.65194 6.06218 6.0241 4.68135 6.0241 3.03109C6.0241 1.38083 4.65194 0 3.01205 0Z" fill="white"/>
</g>
<defs>
<clipPath id="clip0_202_3346">
<rect width="25" height="26" fill="white"/>
</clipPath>
</defs>
</svg>
