<svg width="436" height="582" viewBox="0 0 436 582" fill="none" xmlns="http://www.w3.org/2000/svg">
<g clip-path="url(#clip0_266_194)">
<path d="M323.081 110.778L317.839 116.021L323.081 121.263L328.323 116.021L323.081 110.778Z" fill="#004871"/>
<path d="M211.926 222.246L217.167 227.488L222.409 222.246L217.167 217.003L211.926 222.246Z" fill="#004871"/>
<path d="M106.159 116.021L111.401 121.263L116.642 116.021L111.401 110.778L106.159 116.021Z" fill="#004871"/>
<path d="M220.058 157.57L244.846 147.33L220.058 122.586V157.57Z" fill="#004871"/>
<path d="M214.522 163.548L197.131 170.701L214.522 188.046V163.548Z" fill="#004871"/>
<path d="M259.053 113.179L248.765 88.4356L223.928 113.179H259.053Z" fill="#004871"/>
<path d="M264.588 118.716L271.79 136.011L289.181 118.716H264.588Z" fill="#004871"/>
<path d="M214.522 74.3245L189.685 84.5648L214.522 109.308V74.3245Z" fill="#004871"/>
<path d="M220.058 68.4939L237.4 61.3404L220.058 43.9955V68.4939Z" fill="#004871"/>
<path d="M175.527 118.716L185.814 143.459L210.603 118.716H175.527Z" fill="#004871"/>
<path d="M169.697 113.179L162.496 95.8831L145.105 113.179H169.697Z" fill="#004871"/>
<path d="M169.697 89.5625L181.846 84.5158L169.697 72.4136V89.5625Z" fill="#004871"/>
<path d="M249.01 80.4001L243.964 68.2979H261.159L249.01 80.4001Z" fill="#004871"/>
<path d="M265.029 142.283L252.88 147.33L265.029 159.432V142.283Z" fill="#004871"/>
<path d="M185.765 151.445L190.811 163.548H173.616L185.765 151.445Z" fill="#004871"/>
<path d="M217.167 -0.444489L210.75 14.9895L223.536 15.0385L217.167 -0.444489Z" fill="#004871"/>
<path d="M204.185 218.718V217.199C158.136 211.368 121.59 174.866 115.711 128.956H114.144C120.022 175.699 157.303 212.838 204.136 218.718" fill="#004871"/>
<path d="M320.142 128.956H318.623C312.744 174.866 276.199 211.319 230.149 217.199V218.718C277.031 212.838 314.312 175.699 320.142 128.956Z" fill="#004871"/>
<path d="M114.144 103.086H115.662C121.541 57.1756 158.087 20.7221 204.136 14.8425V13.3236C157.254 19.2032 119.973 56.3427 114.144 103.086Z" fill="#004871"/>
<path d="M230.1 10.3838C278.599 16.2634 317.153 54.7258 323.081 103.086H326.167C320.239 53.0599 280.314 13.2256 230.1 7.297V10.3838Z" fill="#004871"/>
<path d="M111.204 103.086C117.083 54.7258 155.686 16.2634 204.185 10.3838V7.297C154.021 13.2256 114.095 53.0109 108.118 103.086H111.204Z" fill="#004871"/>
<path d="M230.1 13.3236V14.8425C276.15 20.6731 312.695 57.1756 318.574 103.086H320.092C314.214 56.3427 276.982 19.2032 230.1 13.3236Z" fill="#004871"/>
<path d="M323.081 128.956C317.153 177.316 278.599 215.778 230.1 221.658V224.695C280.265 218.767 320.19 178.982 326.167 128.907H323.081V128.956Z" fill="#004871"/>
<path d="M204.185 221.658C155.686 215.778 117.132 177.316 111.204 128.956H108.118C114.046 178.982 153.972 218.816 204.185 224.744V221.707V221.658Z" fill="#004871"/>
<path d="M178.025 37.8709L174.008 30.0315L172.685 30.7174L176.702 38.5569C177.143 38.3119 177.584 38.1159 178.025 37.8709Z" fill="#004871"/>
<path d="M183.022 35.5681L179.544 27.4836L178.172 28.0716L181.699 36.1561C182.14 35.9601 182.581 35.7641 183.022 35.5681Z" fill="#004871"/>
<path d="M188.166 33.6082L185.177 25.3278L183.806 25.8178L186.794 34.0982C187.235 33.9512 187.725 33.7552 188.166 33.6082Z" fill="#004871"/>
<path d="M159.752 50.0221L153.923 43.4566L152.796 44.4365L158.626 51.0021C158.968 50.6591 159.36 50.3651 159.703 50.0221" fill="#004871"/>
<path d="M173.175 40.4678L168.668 32.8733L167.395 33.6082L171.901 41.2027C172.342 40.9577 172.734 40.7128 173.175 40.4678Z" fill="#004871"/>
<path d="M168.521 43.3586L163.573 36.1071L162.349 36.94L167.297 44.1915C167.688 43.8975 168.08 43.6526 168.521 43.3586Z" fill="#004871"/>
<path d="M164.063 46.5434L158.674 39.5858L157.499 40.4678L162.888 47.4253C163.279 47.1313 163.671 46.8373 164.063 46.5434Z" fill="#004871"/>
<path d="M193.408 31.9423L190.958 23.5149L189.538 23.9069L191.987 32.3343C192.477 32.1873 192.918 32.0403 193.408 31.9423Z" fill="#004871"/>
<path d="M215.11 28.7086L214.816 19.9382H213.346L213.64 28.7576C214.13 28.7576 214.62 28.7576 215.11 28.7086Z" fill="#004871"/>
<path d="M209.623 29.0025L208.79 20.2811L207.32 20.4281L208.153 29.1985C208.643 29.1495 209.133 29.1005 209.623 29.0515" fill="#004871"/>
<path d="M198.747 30.6194L196.837 22.045L195.416 22.339L197.327 30.9134C197.816 30.8154 198.257 30.7174 198.747 30.5704" fill="#004871"/>
<path d="M204.185 29.6395L202.813 20.9671L201.344 21.2121L202.715 29.8845C203.205 29.7865 203.695 29.7375 204.185 29.6395Z" fill="#004871"/>
<path d="M145.105 66.338L137.854 61.3894L137.021 62.6143L144.321 67.514C144.566 67.122 144.86 66.73 145.154 66.289" fill="#004871"/>
<path d="M133.249 90.9344L124.774 88.4846L124.333 89.9055L132.809 92.3553C132.956 91.8653 133.054 91.4244 133.2 90.9344" fill="#004871"/>
<path d="M137.022 80.6451L128.938 77.1663L128.351 78.4892L136.434 81.968C136.63 81.527 136.826 81.0861 137.022 80.6451Z" fill="#004871"/>
<path d="M131.829 96.275L123.207 94.3642L122.864 95.7851L131.486 97.6959C131.584 97.206 131.682 96.765 131.829 96.275Z" fill="#004871"/>
<path d="M134.964 85.7408L126.685 82.752L126.195 84.1239L134.474 87.1127C134.621 86.6717 134.817 86.1817 134.964 85.7408Z" fill="#004871"/>
<path d="M155.686 53.7459L149.465 47.5723L148.436 48.6012L154.658 54.8238C155.001 54.4808 155.343 54.1378 155.686 53.7949" fill="#004871"/>
<path d="M130.016 107.054L121.247 106.221L121.1 107.642L129.869 108.475C129.869 107.985 129.967 107.495 130.016 107.005" fill="#004871"/>
<path d="M130.751 101.616L122.08 100.244L121.835 101.665L130.555 103.037C130.604 102.547 130.702 102.057 130.751 101.616Z" fill="#004871"/>
<path d="M151.914 57.7146L145.301 51.933L144.321 53.0109L150.934 58.7926C151.277 58.4496 151.571 58.0576 151.914 57.7146Z" fill="#004871"/>
<path d="M148.387 61.8793L141.431 56.4897L140.549 57.6166L147.505 63.0063C147.799 62.6143 148.093 62.2223 148.387 61.8303" fill="#004871"/>
<path d="M139.422 75.6964L131.584 71.7277L130.947 73.0506L138.785 77.0193C138.981 76.5784 139.226 76.1374 139.422 75.6964Z" fill="#004871"/>
<path d="M142.116 70.9437L134.523 66.485L133.788 67.7589L141.333 72.2176C141.578 71.7767 141.822 71.3847 142.067 70.9437" fill="#004871"/>
<path d="M220.645 28.7576L220.939 19.9872H219.47L219.176 28.7086C219.666 28.7086 220.156 28.7086 220.645 28.7576Z" fill="#004871"/>
<path d="M231.57 29.8845L232.942 21.2121L231.521 20.9671L230.149 29.6395C230.639 29.7375 231.129 29.7865 231.619 29.8845" fill="#004871"/>
<path d="M283.351 58.7926L289.964 52.9619L288.985 51.884L282.371 57.6656C282.714 58.0086 283.008 58.4006 283.351 58.7926Z" fill="#004871"/>
<path d="M299.811 87.1127L308.09 84.1728L307.6 82.8009L299.321 85.7897C299.468 86.2307 299.664 86.7207 299.811 87.1616" fill="#004871"/>
<path d="M297.852 82.017L305.935 78.5382L305.347 77.2153L297.264 80.6941C297.46 81.135 297.656 81.576 297.852 82.017Z" fill="#004871"/>
<path d="M295.5 77.0193L303.338 73.0506L302.701 71.7767L294.863 75.7454C295.108 76.1864 295.304 76.6274 295.549 77.0683" fill="#004871"/>
<path d="M290.013 67.514L297.313 62.5653L296.48 61.3404L289.181 66.289C289.475 66.681 289.72 67.073 290.013 67.514Z" fill="#004871"/>
<path d="M286.829 63.0553L293.786 57.6656L292.904 56.4897L285.948 61.8793C286.241 62.2713 286.535 62.6633 286.829 63.0553Z" fill="#004871"/>
<path d="M292.904 72.1687L300.497 67.71L299.762 66.436L292.169 70.8947C292.414 71.3357 292.659 71.7277 292.904 72.1687Z" fill="#004871"/>
<path d="M304.465 108.524L313.234 107.691L313.087 106.27L304.367 107.103C304.367 107.593 304.465 108.083 304.514 108.573" fill="#004871"/>
<path d="M304.759 114.012L313.528 113.718V112.248L304.71 112.542C304.71 113.032 304.71 113.522 304.71 114.012" fill="#004871"/>
<path d="M303.779 103.086L312.45 101.714L312.205 100.293L303.534 101.665C303.632 102.155 303.681 102.645 303.779 103.135" fill="#004871"/>
<path d="M301.477 92.3553L309.903 89.9055L309.511 88.4846L301.036 90.9344C301.183 91.3754 301.33 91.8653 301.428 92.3553" fill="#004871"/>
<path d="M302.799 97.6959L311.372 95.7851L311.03 94.3642L302.457 96.275C302.555 96.765 302.652 97.206 302.799 97.6959Z" fill="#004871"/>
<path d="M271.398 47.4253L276.786 40.5168L275.611 39.6348L270.222 46.5434C270.614 46.8373 271.006 47.1313 271.349 47.4253" fill="#004871"/>
<path d="M242.298 32.3833L244.748 23.9069L243.327 23.5149L240.878 31.9913C241.319 32.1383 241.808 32.2363 242.298 32.3833Z" fill="#004871"/>
<path d="M247.491 34.0982L250.48 25.8178L249.108 25.3278L246.12 33.6082C246.561 33.7552 247.05 33.9512 247.491 34.0982Z" fill="#004871"/>
<path d="M236.959 30.9624L238.869 22.388L237.448 22.045L235.538 30.6194C236.028 30.7174 236.469 30.8154 236.959 30.9134" fill="#004871"/>
<path d="M279.628 54.7748L285.849 48.5522L284.821 47.5233L278.599 53.7459C278.942 54.0889 279.285 54.4319 279.628 54.7748Z" fill="#004871"/>
<path d="M129.575 112.542L120.806 112.248V113.718L129.526 114.012C129.526 113.522 129.526 113.032 129.526 112.542" fill="#004871"/>
<path d="M252.586 36.1561L256.064 28.0716L254.742 27.4836L251.214 35.5681C251.655 35.7641 252.096 35.9601 252.537 36.1561" fill="#004871"/>
<path d="M275.611 50.9531L281.44 44.3875L280.363 43.4076L274.533 49.9731C274.925 50.3161 275.268 50.6101 275.66 50.9531" fill="#004871"/>
<path d="M257.583 38.5079L261.6 30.6684L260.277 29.9825L256.26 37.822C256.701 38.0179 257.142 38.2629 257.583 38.4589" fill="#004871"/>
<path d="M226.132 29.1495L226.965 20.3791L225.495 20.2321L224.662 28.9536C225.152 28.9536 225.642 29.0515 226.132 29.1005" fill="#004871"/>
<path d="M266.989 44.1915L271.937 36.94L270.712 36.1071L265.764 43.3586C266.156 43.6036 266.597 43.8975 266.989 44.1915Z" fill="#004871"/>
<path d="M262.384 41.2027L266.842 33.6572L265.568 32.9223L261.11 40.4678C261.502 40.7128 261.943 40.9577 262.384 41.2027Z" fill="#004871"/>
<path d="M302.506 135.815L311.079 137.726L311.422 136.305L302.849 134.394C302.751 134.884 302.653 135.374 302.506 135.815Z" fill="#004871"/>
<path d="M261.11 191.574L265.568 199.119L266.842 198.384L262.384 190.839C261.992 191.084 261.551 191.329 261.11 191.574Z" fill="#004871"/>
<path d="M278.599 178.345L284.821 184.518L285.849 183.489L279.628 177.316C279.285 177.659 278.942 178.002 278.599 178.345Z" fill="#004871"/>
<path d="M256.26 194.17L260.277 201.961L261.6 201.275L257.583 193.485C257.142 193.73 256.75 193.925 256.26 194.17Z" fill="#004871"/>
<path d="M251.263 196.473L254.742 204.509L256.064 203.921L252.586 195.885C252.145 196.081 251.704 196.277 251.263 196.473Z" fill="#004871"/>
<path d="M270.271 185.498L275.66 192.407L276.836 191.525L271.447 184.616C271.055 184.91 270.663 185.204 270.271 185.498Z" fill="#004871"/>
<path d="M274.533 182.019L280.363 188.585L281.44 187.605L275.66 181.039C275.317 181.333 274.925 181.676 274.533 182.019Z" fill="#004871"/>
<path d="M219.176 203.382L219.47 212.152H220.939L220.645 203.382C220.156 203.382 219.666 203.382 219.176 203.382Z" fill="#004871"/>
<path d="M224.662 203.088L225.495 211.809L226.965 211.662L226.132 202.941C225.642 202.99 225.152 203.039 224.662 203.088Z" fill="#004871"/>
<path d="M230.149 202.451L231.521 211.074L232.942 210.829L231.57 202.206C231.08 202.304 230.59 202.402 230.149 202.451Z" fill="#004871"/>
<path d="M240.878 200.148L243.327 208.527L244.748 208.135L242.298 199.756C241.857 199.903 241.368 200.05 240.878 200.148Z" fill="#004871"/>
<path d="M235.538 201.471L237.448 209.996L238.869 209.702L236.959 201.177C236.469 201.275 236.028 201.373 235.538 201.52" fill="#004871"/>
<path d="M246.12 198.482L249.108 206.714L250.48 206.224L247.491 197.992C247.05 198.139 246.561 198.335 246.12 198.482Z" fill="#004871"/>
<path d="M265.764 188.683L270.712 195.934L271.937 195.101L266.989 187.85C266.597 188.144 266.205 188.389 265.764 188.683Z" fill="#004871"/>
<path d="M303.534 130.426L312.254 131.798L312.499 130.328L303.828 128.956C303.73 129.446 303.681 129.936 303.583 130.426" fill="#004871"/>
<path d="M301.085 141.107L309.56 143.557L309.952 142.136L301.477 139.686C301.33 140.176 301.232 140.617 301.085 141.107Z" fill="#004871"/>
<path d="M304.71 119.499L313.479 119.793V118.324L304.759 118.03C304.759 118.52 304.759 119.01 304.71 119.499Z" fill="#004871"/>
<path d="M304.269 124.987L313.038 125.82L313.185 124.35L304.416 123.517C304.416 124.007 304.318 124.497 304.269 124.987Z" fill="#004871"/>
<path d="M299.321 146.301L307.6 149.289L308.09 147.918L299.811 144.929C299.664 145.37 299.468 145.86 299.321 146.301Z" fill="#004871"/>
<path d="M292.218 161.147L299.762 165.605L300.497 164.331L292.953 159.873C292.708 160.314 292.463 160.706 292.218 161.147Z" fill="#004871"/>
<path d="M289.181 165.752L296.431 170.652L297.264 169.427L290.013 164.527C289.72 164.919 289.475 165.36 289.181 165.752Z" fill="#004871"/>
<path d="M285.948 170.162L292.904 175.503L293.786 174.376L286.878 169.035C286.584 169.427 286.29 169.819 285.996 170.211" fill="#004871"/>
<path d="M294.912 156.345L302.751 160.314L303.436 158.991L295.598 155.022C295.402 155.463 295.157 155.904 294.961 156.345" fill="#004871"/>
<path d="M297.264 151.396L305.347 154.875L305.935 153.552L297.852 150.073C297.656 150.514 297.46 150.955 297.264 151.445" fill="#004871"/>
<path d="M282.42 174.327L288.985 180.108L289.964 178.982L283.4 173.2C283.106 173.543 282.763 173.935 282.42 174.278" fill="#004871"/>
<path d="M167.297 187.85L162.349 195.101L163.573 195.934L168.521 188.683C168.129 188.389 167.688 188.144 167.297 187.85Z" fill="#004871"/>
<path d="M136.434 150.024L128.351 153.503L128.938 154.826L137.022 151.347C136.826 150.906 136.63 150.465 136.434 149.975" fill="#004871"/>
<path d="M154.658 177.267L148.436 183.44L149.465 184.469L155.686 178.296C155.343 177.953 155.001 177.61 154.658 177.267Z" fill="#004871"/>
<path d="M138.736 155.022L130.898 158.991L131.584 160.314L139.422 156.296C139.177 155.855 138.981 155.414 138.736 155.022Z" fill="#004871"/>
<path d="M213.64 203.333L213.346 212.054H214.816L215.11 203.382C214.62 203.382 214.13 203.382 213.64 203.333Z" fill="#004871"/>
<path d="M147.456 168.986L140.549 174.327L141.431 175.454L148.387 170.113C148.093 169.721 147.799 169.329 147.456 168.986Z" fill="#004871"/>
<path d="M150.934 173.249L144.321 179.03L145.301 180.157L151.865 174.376C151.522 174.033 151.228 173.641 150.885 173.298" fill="#004871"/>
<path d="M141.332 159.873L133.739 164.331L134.474 165.605L142.067 161.147C141.822 160.706 141.577 160.314 141.332 159.873Z" fill="#004871"/>
<path d="M134.474 144.929L126.195 147.918L126.685 149.289L134.964 146.35C134.817 145.909 134.621 145.419 134.474 144.978" fill="#004871"/>
<path d="M129.869 123.517L121.1 124.35L121.247 125.82L129.967 124.987C129.967 124.497 129.869 124.007 129.82 123.517" fill="#004871"/>
<path d="M130.457 128.956L121.786 130.328L122.031 131.798L130.702 130.426C130.604 129.936 130.555 129.495 130.457 129.005" fill="#004871"/>
<path d="M132.808 139.686L124.382 142.136L124.823 143.557L133.249 141.107C133.102 140.617 132.955 140.176 132.857 139.686" fill="#004871"/>
<path d="M131.486 134.345L122.913 136.256L123.256 137.677L131.829 135.766C131.682 135.276 131.584 134.835 131.486 134.345Z" fill="#004871"/>
<path d="M144.272 164.527L136.973 169.476L137.805 170.701L145.056 165.752C144.762 165.36 144.517 164.919 144.223 164.527" fill="#004871"/>
<path d="M197.327 201.128L195.416 209.702L196.837 209.996L198.747 201.471C198.257 201.373 197.816 201.275 197.327 201.128Z" fill="#004871"/>
<path d="M191.987 199.707L189.538 208.135L190.958 208.527L193.408 200.099C192.918 199.952 192.477 199.805 191.987 199.707Z" fill="#004871"/>
<path d="M186.794 197.943L183.806 206.175L185.177 206.665L188.166 198.433C187.725 198.286 187.235 198.09 186.794 197.943Z" fill="#004871"/>
<path d="M202.715 202.206L201.344 210.829L202.813 211.074L204.185 202.402C203.695 202.353 203.205 202.255 202.715 202.157" fill="#004871"/>
<path d="M208.153 202.892L207.32 211.613L208.79 211.76L209.623 203.039C209.133 203.039 208.643 202.941 208.153 202.892Z" fill="#004871"/>
<path d="M162.839 184.616L157.45 191.525L158.626 192.407L164.014 185.498C163.623 185.204 163.231 184.91 162.888 184.616" fill="#004871"/>
<path d="M129.526 118.03L120.757 118.324V119.793L129.575 119.499C129.575 119.01 129.575 118.52 129.526 118.03Z" fill="#004871"/>
<path d="M158.626 181.088L152.845 187.654L153.972 188.634L159.752 182.068C159.36 181.725 159.018 181.431 158.675 181.088" fill="#004871"/>
<path d="M171.902 190.839L167.444 198.384L168.717 199.119L173.175 191.574C172.734 191.329 172.342 191.084 171.902 190.839Z" fill="#004871"/>
<path d="M181.65 195.885L178.172 203.921L179.495 204.509L182.973 196.473C182.532 196.277 182.042 196.081 181.601 195.885" fill="#004871"/>
<path d="M176.702 193.534L172.734 201.324L174.057 202.01L178.025 194.219C177.584 194.023 177.143 193.778 176.702 193.583" fill="#004871"/>
<path d="M189.685 147.33L214.522 157.57V122.586L189.685 147.33Z" fill="#004871"/>
<path d="M237.4 170.701L220.058 163.548V188.046L237.4 170.701Z" fill="#004871"/>
<path d="M248.765 143.459L259.053 118.716H223.928L248.765 143.459Z" fill="#004871"/>
<path d="M271.79 95.8831L264.588 113.179H289.181L271.79 95.8831Z" fill="#004871"/>
<path d="M244.846 84.5648L220.058 74.3245V109.308L244.846 84.5648Z" fill="#004871"/>
<path d="M197.131 61.2914L214.522 68.4939V43.9955L197.131 61.2914Z" fill="#004871"/>
<path d="M185.814 88.4356L175.527 113.179H210.603L185.814 88.4356Z" fill="#004871"/>
<path d="M162.496 136.011L169.697 118.716H145.105L162.496 136.011Z" fill="#004871"/>
<path d="M185.765 80.6451L190.811 68.5429H173.616L185.765 80.6451Z" fill="#004871"/>
<path d="M265.029 89.3175L252.88 84.3198L265.029 72.1686V89.3175Z" fill="#004871"/>
<path d="M249.01 151.2L243.964 163.303L261.159 163.352L249.01 151.2Z" fill="#004871"/>
<path d="M169.697 142.528L181.846 147.526L169.697 159.677V142.528Z" fill="#004871"/>
<path d="M436.49 409.805H-0.0979004V413.578H436.49V409.805Z" fill="#004871"/>
<path d="M29.3932 478.351C26.6499 475.755 25.2782 472.423 25.2782 468.307C25.2782 463.652 26.7478 460.125 29.6872 457.675C32.1856 455.666 35.3209 454.637 39.191 454.637C42.5712 454.637 45.2656 455.568 47.2251 457.479C49.2827 459.39 50.3114 461.987 50.3604 465.367V477.078C50.3604 478.645 49.7725 479.968 48.5968 481.095C47.5681 482.026 46.3923 482.516 45.0696 482.516H8.57301C6.61346 482.516 4.80088 481.928 3.18425 480.752C0.587848 478.841 -0.734863 476.147 -0.734863 472.766V461.644L1.81255 459.586H4.31099V472.766C4.31099 474.432 4.94784 475.804 6.22155 476.882C7.25031 477.813 8.52402 478.302 9.99369 478.302H29.4422L29.3932 478.351ZM45.3146 465.416C45.3146 463.358 44.7757 461.791 43.649 460.615C42.5222 459.488 41.0526 458.9 39.142 458.9C36.3007 458.9 34.1452 459.733 32.5775 461.399C31.0589 463.064 30.275 465.416 30.275 468.454C30.275 471.492 31.2548 473.942 33.2633 475.755C34.978 477.47 37.1824 478.302 39.8768 478.302H43.0121C44.5308 478.302 45.2656 477.567 45.2656 476.049V465.367L45.3146 465.416ZM39.191 442.388C39.9748 442.388 40.6606 442.682 41.2485 443.221C41.8364 443.76 42.1303 444.495 42.1303 445.279C42.1303 446.112 41.8364 446.798 41.2485 447.386C40.6606 447.973 40.0238 448.218 39.191 448.218C38.3582 448.218 37.6723 447.924 37.0845 447.386C36.4966 446.798 36.2517 446.112 36.2517 445.279C36.2517 444.495 36.5456 443.809 37.0845 443.221C37.6723 442.633 38.3582 442.388 39.191 442.388Z" fill="#004871"/>
<path d="M74.6099 455.372V478.351H77.6472V482.565H74.6099C74.5119 487.465 72.7483 491.189 69.3681 493.589C66.6737 495.598 63.1465 496.627 58.7865 496.627C58.1007 496.627 57.2678 496.627 56.2391 496.578L54.2795 494.177V492.267C55.4063 492.414 56.68 492.511 58.0027 492.511C65.6939 492.511 69.564 488.984 69.564 481.879V455.421H74.5609L74.6099 455.372Z" fill="#004871"/>
<path d="M92.7848 440.232V468.356C98.1246 459.243 105.228 454.637 113.997 454.637C118.7 454.637 122.521 456.058 125.411 458.949C128.008 461.595 129.33 464.975 129.33 469.042V476.882C129.33 477.372 129.281 477.861 129.134 478.302H131.192V482.516H129.967L128.253 480.458H128.057C126.93 481.83 125.558 482.516 123.942 482.516H77.2554V478.302H87.8859V440.183H92.8338L92.7848 440.232ZM124.187 468.503C124.187 465.22 122.962 462.721 120.512 461.007C118.602 459.635 116.201 458.949 113.262 458.949C109.931 458.949 106.747 459.978 103.807 462.036C99.2513 465.269 95.5772 470.708 92.7848 478.351H122.031C123.501 478.351 124.236 477.617 124.236 476.098V468.552L124.187 468.503Z" fill="#004871"/>
<path d="M146.33 455.372V476.931C146.33 477.421 146.281 477.861 146.134 478.351H149.269V482.565H146.966L145.252 480.507H145.056C143.978 481.879 142.606 482.565 140.941 482.565H130.653V478.351H139.03C139.667 478.351 140.157 478.155 140.549 477.763C141.039 477.323 141.284 476.784 141.284 476.098V455.372H146.281H146.33ZM136.777 442.388C137.609 442.388 138.295 442.682 138.834 443.221C139.373 443.809 139.667 444.495 139.667 445.279C139.667 446.112 139.373 446.798 138.834 447.386C138.295 447.973 137.609 448.218 136.777 448.218C135.944 448.218 135.307 447.924 134.719 447.386C134.131 446.847 133.886 446.112 133.886 445.279C133.886 444.446 134.18 443.809 134.719 443.221C135.258 442.633 135.944 442.388 136.777 442.388ZM143.978 442.388C144.762 442.388 145.448 442.682 146.036 443.221C146.623 443.809 146.868 444.495 146.868 445.279C146.868 446.112 146.574 446.798 146.036 447.386C145.448 447.973 144.762 448.218 143.978 448.218C143.145 448.218 142.459 447.924 141.872 447.386C141.284 446.847 140.99 446.112 140.99 445.279C140.99 444.446 141.284 443.809 141.872 443.221C142.459 442.633 143.145 442.388 143.978 442.388Z" fill="#004871"/>
<path d="M164.504 440.232V476.931C164.504 478.449 164.014 479.772 162.985 480.801C161.908 481.928 160.634 482.516 159.164 482.516H148.877V478.302H157.254C157.989 478.302 158.576 478.057 158.968 477.519C159.311 477.078 159.507 476.588 159.507 476.049V440.183H164.504V440.232Z" fill="#004871"/>
<path d="M181.846 440.232V481.928L179.299 483.986H176.8V440.232H181.797H181.846Z" fill="#004871"/>
<path d="M276.59 453.755V476.098C276.59 476.784 276.786 477.371 277.178 477.763C277.521 478.155 277.913 478.351 278.354 478.351H279.53V482.565H277.031C275.219 482.565 273.798 481.879 272.72 480.507C270.173 482.32 267.381 483.202 264.441 483.202C260.326 483.202 257.044 481.585 254.643 478.351C252.684 475.706 251.704 472.57 251.704 468.895C251.704 464.583 253.125 461.056 255.966 458.214C258.465 455.666 261.551 454.392 265.225 454.392C267.332 454.392 269.438 454.882 271.545 455.813L274.092 453.804H276.59V453.755ZM271.594 459.88C269.879 458.998 268.115 458.557 266.352 458.557C263.363 458.557 260.963 459.733 259.101 462.085C257.583 463.995 256.799 466.298 256.799 468.944C256.799 472.08 257.534 474.579 259.052 476.392C260.522 478.057 262.482 478.89 264.98 478.89C267.087 478.89 269.34 478.302 271.643 477.176V459.88H271.594ZM266.499 442.339C267.283 442.339 267.968 442.633 268.556 443.172C269.144 443.76 269.389 444.446 269.389 445.23C269.389 446.063 269.095 446.749 268.556 447.337C267.968 447.924 267.283 448.169 266.499 448.169C265.715 448.169 265.029 447.875 264.441 447.337C263.853 446.798 263.559 446.063 263.559 445.23C263.559 444.397 263.853 443.76 264.441 443.172C265.029 442.584 265.666 442.339 266.499 442.339ZM273.651 442.339C274.484 442.339 275.17 442.633 275.758 443.172C276.345 443.76 276.59 444.446 276.59 445.23C276.59 446.063 276.296 446.749 275.758 447.337C275.17 447.924 274.484 448.169 273.651 448.169C272.818 448.169 272.181 447.875 271.594 447.337C271.006 446.798 270.712 446.063 270.712 445.23C270.712 444.397 271.006 443.76 271.594 443.172C272.181 442.584 272.818 442.339 273.651 442.339Z" fill="#004871"/>
<path d="M286.976 456.352C290.601 455.225 293.982 454.637 297.117 454.637C302.016 454.637 305.739 456.156 308.286 459.194C310.491 461.791 311.569 465.22 311.569 469.434V476.931C311.569 477.421 311.52 477.861 311.373 478.351H313.43V482.565H312.205L310.54 480.507H310.344C309.217 481.879 307.845 482.565 306.229 482.565H279.04V478.351H304.269C305.788 478.351 306.523 477.617 306.523 476.098V469.238C306.523 466.151 305.739 463.75 304.122 461.987C302.359 460.027 299.762 459.047 296.382 459.047C294.325 459.047 291.189 459.488 286.927 460.37V456.401L286.976 456.352Z" fill="#004871"/>
<path d="M326.314 478.351C324.795 476.98 323.718 475.265 322.983 473.207C322.444 471.541 322.15 469.924 322.15 468.307C322.15 464.093 323.424 460.762 325.922 458.263C328.421 455.862 331.752 454.637 336.014 454.637C339.247 454.637 341.844 455.47 343.754 457.136C346.008 459.047 347.183 461.791 347.232 465.416V476.931C347.232 478.449 346.693 479.772 345.665 480.899C344.636 482.026 343.411 482.565 341.942 482.565H313.087V478.351H326.314ZM342.186 465.416C342.186 463.211 341.55 461.497 340.227 460.321C339.198 459.39 337.826 458.9 336.014 458.9C332.732 458.9 330.331 460.027 328.813 462.33C327.735 463.897 327.147 465.955 327.147 468.454C327.147 471.149 328.029 473.403 329.743 475.314C331.507 477.323 333.858 478.351 336.749 478.351H339.933C341.403 478.351 342.137 477.617 342.137 476.098V465.416H342.186ZM336.063 442.388C336.896 442.388 337.582 442.682 338.169 443.221C338.757 443.76 339.051 444.495 339.051 445.279C339.051 446.112 338.757 446.798 338.169 447.386C337.582 447.973 336.896 448.218 336.063 448.218C335.23 448.218 334.593 447.924 334.005 447.386C333.417 446.798 333.173 446.112 333.173 445.279C333.173 444.446 333.466 443.809 334.005 443.221C334.593 442.633 335.279 442.388 336.063 442.388Z" fill="#004871"/>
<path d="M363.741 440.232V476.098C363.741 476.735 363.937 477.274 364.329 477.666C364.77 478.106 365.309 478.302 365.995 478.302H366.779V482.516H364.084C362.811 482.516 361.733 482.124 360.753 481.291C359.43 480.164 358.745 478.694 358.745 476.931V440.232H363.741Z" fill="#004871"/>
<path d="M393.037 439.35V443.956L378.193 452.775C384.317 454.441 389.167 457.479 392.694 461.987C395.927 466.102 397.544 470.806 397.544 476.147C397.544 477.078 397.495 477.763 397.348 478.351H399.356V482.565H398.181L396.466 480.507H396.368C395.192 481.879 393.821 482.565 392.253 482.565H366.338V478.351H390.293C391.812 478.351 392.596 477.568 392.596 476C392.4 471.933 391.175 468.307 388.971 465.22C385.835 460.664 380.79 457.871 373.833 456.94C373.588 456.94 373.49 456.793 373.49 456.548V450.717L392.988 439.448L393.037 439.35Z" fill="#004871"/>
<path d="M409.546 465.416C409.546 461.399 410.967 458.459 413.808 456.548C415.67 455.323 418.119 454.735 421.205 454.735C424.928 454.735 428.064 456.009 430.611 458.557C433.11 461.105 434.383 464.681 434.383 469.287C434.383 473.599 433.11 477.176 430.611 480.164C428.26 482.908 425.271 484.28 421.646 484.28C418.266 484.28 415.523 483.006 413.367 480.458C412.289 481.83 410.869 482.516 409.105 482.516H398.964V478.302H407.341C407.978 478.302 408.517 478.106 408.958 477.665C409.399 477.225 409.595 476.686 409.595 476.098V465.416H409.546ZM414.543 476.98C416.6 479.086 418.854 480.115 421.352 480.115C423.851 480.115 425.614 479.135 427.084 477.176C428.554 475.216 429.288 472.717 429.288 469.581C429.288 466.102 428.407 463.407 426.692 461.35C425.222 459.684 423.312 458.851 420.911 458.851C419.099 458.851 417.629 459.39 416.502 460.419C415.229 461.644 414.543 463.26 414.543 465.318V476.882V476.98Z" fill="#004871"/>
<path d="M28.9523 549.299C26.4538 546.604 25.2291 543.272 25.2291 539.254C25.2291 535.433 26.2579 532.297 28.3644 529.847C30.7648 527.005 33.9491 525.584 37.9172 525.584C41.4444 525.584 44.4327 526.76 46.7842 529.063C49.3806 531.611 50.7033 534.992 50.7033 539.205C50.7033 543.125 49.4785 546.506 46.9801 549.25H52.1239V553.463H43.6979H43.012C40.7096 553.463 39.0439 553.316 38.1131 552.973H37.9172C36.9864 553.267 35.3208 553.463 32.9693 553.463H32.2835H8.62191C6.27045 553.463 4.21292 552.68 2.49831 551.063C0.391798 549.152 -0.636963 546.702 -0.636963 543.713V532.591L1.91045 530.533H4.40889V543.713C4.40889 545.232 4.89877 546.506 5.92753 547.535C7.00528 548.662 8.42596 549.25 10.0426 549.25H29.0502L28.9523 549.299ZM45.6574 539.303C45.6574 536.413 44.9716 534.061 43.5509 532.395C42.1302 530.68 40.2687 529.847 37.9172 529.847C35.4188 529.847 33.5082 530.729 32.1855 532.493C30.9118 534.159 30.275 536.462 30.275 539.401C30.275 542.145 31.0098 544.448 32.4795 546.31C33.9491 548.172 35.7617 549.152 37.9172 549.25C40.4646 549.152 42.4732 547.878 43.9428 545.477C45.0696 543.615 45.6574 541.557 45.6574 539.303ZM37.9172 513.335C38.75 513.335 39.4358 513.629 40.0237 514.168C40.6116 514.756 40.8565 515.442 40.8565 516.226C40.8565 517.059 40.5626 517.745 40.0237 518.333C39.4358 518.921 38.75 519.166 37.9172 519.166C37.0844 519.166 36.4475 518.872 35.8597 518.333C35.2718 517.794 34.9779 517.059 34.9779 516.226C34.9779 515.393 35.2718 514.756 35.8597 514.168C36.4475 513.58 37.0844 513.335 37.9172 513.335Z" fill="#004871"/>
<path d="M67.3595 526.319V547.878C67.3595 548.368 67.3105 548.809 67.1636 549.299H70.2988V553.512H67.9964L66.2818 551.455H66.0858C65.0081 552.826 63.6364 553.512 61.9708 553.512H51.6831V549.299H60.0602C60.697 549.299 61.1869 549.103 61.5788 548.711C62.0687 548.27 62.3137 547.731 62.3137 547.045V526.319H67.3105H67.3595ZM57.2678 559.637C58.0516 559.637 58.7375 559.931 59.3254 560.47C59.9132 561.009 60.1582 561.695 60.1582 562.528C60.1582 563.361 59.8642 564.047 59.3254 564.635C58.7375 565.223 58.0516 565.517 57.2678 565.517C56.484 565.517 55.7982 565.223 55.2103 564.635C54.6224 564.047 54.3285 563.361 54.3285 562.528C54.3285 561.695 54.6224 561.058 55.2103 560.47C55.7982 559.882 56.435 559.637 57.2678 559.637ZM64.4202 559.637C65.253 559.637 65.9388 559.931 66.5267 560.47C67.1146 561.009 67.3595 561.695 67.3595 562.528C67.3595 563.361 67.0656 564.047 66.5267 564.635C65.9388 565.223 65.253 565.517 64.4202 565.517C63.5874 565.517 62.9505 565.223 62.3627 564.635C61.7748 564.047 61.4809 563.361 61.4809 562.528C61.4809 561.695 61.7748 561.058 62.3627 560.47C62.9505 559.882 63.5874 559.637 64.4202 559.637Z" fill="#004871"/>
<path d="M85.5343 526.319V547.878C85.5343 548.368 85.4853 548.809 85.3384 549.299H88.4737V553.512H86.1712L84.4566 551.455H84.2606C83.1829 552.827 81.8112 553.512 80.1456 553.512H69.8579V549.299H78.235C78.8719 549.299 79.3617 549.103 79.7536 548.711C80.2435 548.27 80.4885 547.731 80.4885 547.045V526.319H85.4853H85.5343ZM82.9869 513.335C83.8197 513.335 84.5056 513.629 85.0934 514.168C85.6813 514.756 85.9262 515.442 85.9262 516.226C85.9262 517.059 85.6323 517.745 85.0934 518.333C84.5056 518.921 83.8197 519.166 82.9869 519.166C82.1541 519.166 81.5172 518.872 80.9294 518.333C80.3415 517.745 80.0966 517.059 80.0966 516.226C80.0966 515.393 80.3905 514.756 80.9294 514.168C81.5172 513.58 82.2031 513.335 82.9869 513.335Z" fill="#004871"/>
<path d="M96.263 535.923C97.6347 532.444 99.9372 529.749 103.17 527.838C105.767 526.319 108.461 525.584 111.254 525.584C114.046 525.584 116.74 526.319 119.288 527.838C122.57 529.749 124.872 532.444 126.195 535.923L125.656 537.344C122.962 538.47 120.708 540.038 118.994 541.998C117.23 544.056 116.103 546.457 115.614 549.25H126.783V553.463H114.781C113.605 553.463 112.478 552.875 111.352 551.749H111.156C110.078 552.875 108.951 553.463 107.726 553.463H87.9839V549.25H106.845C106.404 546.849 105.424 544.595 103.905 542.439C102.142 540.234 99.7902 538.519 96.8019 537.295L96.214 535.874L96.263 535.923ZM120.757 535.335C119.435 533.424 117.965 532.052 116.348 531.072C114.781 530.239 113.066 529.847 111.254 529.847C109.441 529.847 107.824 530.239 106.355 530.974C104.64 531.856 103.072 533.277 101.75 535.335C103.807 536.266 105.571 537.54 106.992 539.156C108.804 541.214 110.176 543.762 111.107 546.849H111.303C112.282 543.664 113.703 541.067 115.565 539.009C117.083 537.441 118.798 536.217 120.757 535.335Z" fill="#004871"/>
<path d="M142.018 511.179V547.878C142.018 549.397 141.528 550.72 140.5 551.749C139.422 552.875 138.148 553.463 136.679 553.463H126.391V549.25H134.768C135.503 549.25 136.091 549.005 136.483 548.466C136.825 548.025 137.021 547.535 137.021 546.996V511.13H142.018V511.179Z" fill="#004871"/>
<path d="M159.311 511.179V552.875L156.764 554.933H154.266V511.179H159.263H159.311Z" fill="#004871"/>
<path d="M245.042 549.299C242.299 546.702 240.927 543.37 240.927 539.254C240.927 534.6 242.397 531.072 245.336 528.622C247.834 526.613 250.97 525.584 254.84 525.584C258.22 525.584 260.914 526.515 262.874 528.426C264.931 530.337 265.96 532.934 266.009 536.315V548.025C266.009 549.593 265.421 550.916 264.246 552.043C263.217 552.973 262.041 553.463 260.718 553.463H224.222C222.262 553.463 220.45 552.875 218.833 551.7C216.236 549.789 214.914 547.094 214.914 543.713V532.591L217.461 530.533H219.96V543.713C219.96 545.379 220.597 546.751 221.87 547.829C222.899 548.76 224.173 549.25 225.642 549.25H245.091L245.042 549.299ZM260.963 536.364C260.963 534.306 260.424 532.738 259.298 531.562C258.171 530.435 256.701 529.847 254.791 529.847C251.949 529.847 249.794 530.68 248.226 532.346C246.708 534.012 245.924 536.364 245.924 539.401C245.924 542.439 246.903 544.889 248.912 546.702C250.627 548.417 252.831 549.25 255.526 549.25H258.661C260.179 549.25 260.914 548.515 260.914 546.996V536.315L260.963 536.364ZM254.84 513.335C255.623 513.335 256.309 513.629 256.897 514.168C257.485 514.707 257.779 515.442 257.779 516.226C257.779 517.059 257.485 517.745 256.897 518.333C256.309 518.921 255.672 519.166 254.84 519.166C254.007 519.166 253.321 518.872 252.733 518.333C252.145 517.745 251.9 517.059 251.9 516.226C251.9 515.393 252.194 514.756 252.733 514.168C253.321 513.58 254.007 513.335 254.84 513.335Z" fill="#004871"/>
<path d="M290.258 526.319V549.299H293.296V553.512H290.258C290.16 558.412 288.397 562.136 285.017 564.537C282.322 566.546 278.795 567.574 274.435 567.574C273.749 567.574 272.916 567.574 271.888 567.526L269.928 565.125V563.214C271.055 563.361 272.328 563.459 273.651 563.459C281.342 563.459 285.212 559.931 285.212 552.826V526.368H290.209L290.258 526.319Z" fill="#004871"/>
<path d="M308.482 511.179V539.303C313.822 530.19 320.925 525.584 329.694 525.584C334.397 525.584 338.218 527.005 341.109 529.896C343.705 532.542 345.028 535.923 345.028 539.989V547.829C345.028 548.319 344.979 548.809 344.832 549.25H346.889V553.463H345.665L343.95 551.406H343.754C342.627 552.777 341.256 553.463 339.639 553.463H292.953V549.25H303.583V511.13H308.531L308.482 511.179ZM339.884 539.45C339.884 536.168 338.659 533.669 336.21 531.954C334.299 530.582 331.899 529.896 328.96 529.896C325.628 529.896 322.444 530.925 319.505 532.983C314.949 536.217 311.275 541.655 308.482 549.299H337.729C339.198 549.299 339.933 548.564 339.933 547.045V539.499L339.884 539.45Z" fill="#004871"/>
<path d="M362.027 526.319V547.878C362.027 548.368 361.978 548.809 361.831 549.299H364.966V553.512H362.664L360.949 551.455H360.753C359.676 552.827 358.304 553.512 356.638 553.512H346.351V549.299H354.728C355.365 549.299 355.854 549.103 356.246 548.711C356.736 548.27 356.981 547.731 356.981 547.045V526.319H361.978H362.027ZM352.474 513.335C353.307 513.335 353.993 513.629 354.532 514.168C355.071 514.756 355.365 515.442 355.365 516.226C355.365 517.059 355.071 517.745 354.532 518.333C353.993 518.921 353.307 519.166 352.474 519.166C351.641 519.166 351.005 518.872 350.417 518.333C349.829 517.794 349.584 517.059 349.584 516.226C349.584 515.393 349.878 514.756 350.417 514.168C350.956 513.58 351.641 513.335 352.474 513.335ZM359.676 513.335C360.459 513.335 361.145 513.629 361.733 514.168C362.321 514.756 362.566 515.442 362.566 516.226C362.566 517.059 362.272 517.745 361.733 518.333C361.145 518.921 360.459 519.166 359.676 519.166C358.843 519.166 358.157 518.872 357.569 518.333C356.981 517.794 356.687 517.059 356.687 516.226C356.687 515.393 356.981 514.756 357.569 514.168C358.157 513.58 358.843 513.335 359.676 513.335Z" fill="#004871"/>
<path d="M380.202 511.179V547.878C380.202 549.397 379.712 550.72 378.683 551.749C377.605 552.875 376.332 553.463 374.862 553.463H364.574V549.25H372.952C373.686 549.25 374.274 549.005 374.666 548.466C375.009 548.025 375.205 547.535 375.205 546.996V511.13H380.202V511.179Z" fill="#004871"/>
<path d="M397.495 511.179V552.875L394.947 554.933H392.449V511.179H397.446H397.495Z" fill="#004871"/>
<path d="M428.799 552.875C426.741 553.61 424.586 554.002 422.381 554.002C418.119 554.002 414.739 552.483 412.289 549.495C410.085 546.849 408.958 543.517 408.958 539.401C408.958 535.286 410.134 531.954 412.436 529.504C414.935 526.907 418.266 525.584 422.479 525.584C425.663 525.584 428.26 526.368 430.268 527.985C432.669 529.896 433.894 532.689 433.894 536.315V552.924C433.894 557.971 432.179 561.744 428.946 564.341C427.28 565.664 425.32 566.546 422.969 567.036C421.45 567.329 419.834 567.526 418.168 567.526C417.237 567.526 416.307 567.525 415.474 567.476L413.514 565.076V563.165C414.69 563.312 415.915 563.41 417.237 563.41C424.929 563.41 428.799 559.882 428.799 552.875ZM428.799 536.315C428.799 533.865 427.917 532.052 426.202 530.827C425.223 530.141 423.998 529.847 422.479 529.847C419.834 529.847 417.776 530.729 416.258 532.493C414.739 534.257 414.004 536.707 414.004 539.891C414.004 543.076 414.886 545.232 416.6 546.996C418.119 548.613 420.177 549.397 422.724 549.397C424.978 549.397 426.986 549.054 428.799 548.319V536.315Z" fill="#004871"/>
<path d="M38.4563 285.304H27.0909V273.104H38.4563V285.304ZM19.7426 285.304H8.37718V273.104H19.7426V285.304ZM36.4967 339.495L36.3498 316.368C32.6756 309.95 27.9237 306.667 21.8981 306.667C18.077 306.667 14.8437 308.382 12.3943 311.812C9.45494 315.388 8.08326 320.729 8.08326 327.442C8.08326 331.018 8.52416 333.517 9.30798 335.232C10.5327 338.025 12.9821 339.446 16.6563 339.446H36.4477L36.4967 339.495ZM68.9273 366.345H53.3979C42.3264 366.345 36.9866 360.563 37.1336 349.147H14.5498C2.89045 349.147 -2.93921 341.651 -2.93921 326.805C-2.93921 316.956 -0.489785 309.46 4.60505 304.315C8.57314 300.101 13.521 297.896 19.2037 297.896C26.405 297.896 33.0185 301.816 36.1048 306.814H36.3988V299.17H46.9803V348.51C46.9803 353.655 49.1358 356.301 53.4469 356.301H68.9763V366.296L68.9273 366.345Z" fill="#004871"/>
<path d="M87.1511 356.35H66.0859V366.345H87.1511V356.35Z" fill="#004871"/>
<path d="M105.424 356.35H84.3589V366.345H105.424V356.35Z" fill="#004871"/>
<path d="M123.697 356.35H102.632V366.345H123.697V356.35Z" fill="#004871"/>
<path d="M141.969 356.35H120.904V366.345H141.969V356.35Z" fill="#004871"/>
<path d="M160.242 356.35H139.177V366.345H160.242V356.35Z" fill="#004871"/>
<path d="M189.734 389.422H178.368V377.418H189.734V389.422ZM170.824 389.422H159.458V377.418H170.824V389.422ZM195.563 346.011C195.563 358.505 188.215 366.296 174.694 366.296H154.56V356.301H174.547C180.524 356.301 184.982 352.724 184.982 345.668C184.982 347.089 184.835 335.036 184.541 309.264H195.122C195.416 333.958 195.563 346.109 195.563 345.962" fill="#004871"/>
<path d="M226.916 366.345H216.286L215.551 265.314H226.132L226.916 366.345Z" fill="#004871"/>
<path d="M326.608 366.345H245.336L248.569 356.35H290.504C290.21 345.864 287.76 336.996 282.959 329.499C278.648 322.493 274.043 319.014 268.998 319.014V309.313C276.836 309.313 283.449 313.232 289.132 320.876C295.451 329.45 299.273 341.161 300.497 356.301H326.608V366.296V366.345Z" fill="#004871"/>
<path d="M344.293 356.35H323.228V366.345H344.293V356.35Z" fill="#004871"/>
<path d="M419.981 356.35C419.344 349 417.237 342.141 413.661 335.428C410.281 329.009 406.607 324.943 402.59 322.934C405.676 327.441 407.195 332.782 407.195 338.858C407.195 346.06 405.676 351.793 402.59 356.35H419.932H419.981ZM397.103 337.78C397.103 331.704 395.731 326.854 392.792 323.277C390.343 320.141 387.256 318.573 383.582 318.573C379.908 318.573 377.116 320.141 374.813 323.277C372.364 326.707 371.139 331.557 371.139 337.78C371.139 344.002 372.511 348.706 375.303 352.136C377.753 355.419 380.839 356.987 384.513 356.987C391.714 356.987 397.103 350.274 397.103 337.78ZM431.346 366.345H340.276V356.35H367.024C362.86 351.646 360.704 345.864 360.704 338.858C360.704 330.871 362.713 324.159 366.828 318.867C362.811 319.945 359.137 321.366 355.757 323.375L352.376 315.731C362.37 311.518 372.511 309.313 383.092 309.313C413.808 309.313 429.926 328.372 431.346 366.296" fill="#004871"/>
</g>
<defs>
<clipPath id="clip0_266_194">
<rect width="436" height="582" fill="white"/>
</clipPath>
</defs>
</svg>
