<svg width="428" height="561" viewBox="0 0 428 561" fill="none" xmlns="http://www.w3.org/2000/svg">
<g clip-path="url(#clip0_266_7)">
<path d="M316.006 108.729L310.823 113.864L316.006 118.999L321.142 113.864L316.006 108.729Z" fill="#004871"/>
<path d="M206.771 218.172L211.907 223.307L217.091 218.172L211.907 213.037L206.771 218.172Z" fill="#004871"/>
<path d="M102.91 113.864L108.046 118.999L113.182 113.864L108.046 108.729L102.91 113.864Z" fill="#004871"/>
<path d="M214.76 154.703L239.156 144.624L214.76 120.33V154.703Z" fill="#004871"/>
<path d="M209.339 160.551L192.267 167.587L209.339 184.559V160.551Z" fill="#004871"/>
<path d="M253.09 111.107L243.009 86.8124L218.613 111.107H253.09Z" fill="#004871"/>
<path d="M258.559 116.479L265.598 133.499L282.67 116.479H258.559Z" fill="#004871"/>
<path d="M209.339 72.8824L184.991 82.9614L209.339 107.256V72.8824Z" fill="#004871"/>
<path d="M214.76 67.1773L231.833 60.1411L214.76 43.1209V67.1773Z" fill="#004871"/>
<path d="M171.057 116.479L181.139 140.773L205.535 116.479H171.057Z" fill="#004871"/>
<path d="M165.303 111.106L158.217 94.0863L141.145 111.106H165.303Z" fill="#004871"/>
<path d="M165.303 87.8583L177.287 82.9139L165.303 71.0283V87.8583Z" fill="#004871"/>
<path d="M243.199 78.8728L238.253 66.9872H255.135L243.199 78.8728Z" fill="#004871"/>
<path d="M258.987 139.632L247.051 144.576L258.987 156.509V139.632Z" fill="#004871"/>
<path d="M181.091 148.617L186.037 160.503L169.155 160.551L181.091 148.617Z" fill="#004871"/>
<path d="M211.907 -0.475449L205.63 14.643L218.232 14.6906L211.907 -0.475449Z" fill="#004871"/>
<path d="M199.162 214.701V213.18C153.937 207.427 117.985 171.628 112.231 126.558H110.709C116.463 172.484 153.081 208.949 199.162 214.701Z" fill="#004871"/>
<path d="M313.105 126.558H311.584C305.829 171.628 269.877 207.475 224.652 213.18V214.701C270.733 208.949 307.304 172.484 313.105 126.558Z" fill="#004871"/>
<path d="M110.757 101.17H112.278C118.033 56.1 153.985 20.253 199.21 14.5479V13.0266C153.129 18.7792 116.558 55.2442 110.757 101.17Z" fill="#004871"/>
<path d="M224.7 10.1265C272.35 15.9267 310.252 53.6753 316.054 101.17H319.097C313.248 52.0113 274.062 12.9315 224.747 7.13133V10.1265H224.7Z" fill="#004871"/>
<path d="M107.856 101.17C113.658 53.6753 151.559 15.9267 199.21 10.1265V7.13133C149.895 12.9315 110.662 52.0113 104.86 101.17H107.903H107.856Z" fill="#004871"/>
<path d="M224.7 13.0266V14.5479C269.925 20.3006 305.877 56.1 311.631 101.17H313.153C307.399 55.2442 270.781 18.7792 224.7 13.0266Z" fill="#004871"/>
<path d="M316.006 126.558C310.205 174.053 272.303 211.801 224.652 217.601V220.597C273.967 214.796 313.201 175.717 319.002 126.558H315.959H316.006Z" fill="#004871"/>
<path d="M199.162 217.601C151.512 211.801 113.61 174.053 107.808 126.558H104.765C110.614 175.717 149.8 214.796 199.115 220.597V217.601H199.162Z" fill="#004871"/>
<path d="M173.482 37.1306L169.535 29.4287L168.251 30.0943L172.198 37.7962C172.626 37.5585 173.054 37.3683 173.482 37.1306Z" fill="#004871"/>
<path d="M178.428 34.8485L175.004 26.909L173.673 27.4795L177.097 35.419C177.525 35.2289 177.953 35.0387 178.428 34.8485Z" fill="#004871"/>
<path d="M183.469 32.8993L180.521 24.7696L179.189 25.245L182.138 33.3747C182.566 33.1846 183.041 33.0419 183.469 32.8993Z" fill="#004871"/>
<path d="M155.554 49.0162L149.847 42.5504L148.753 43.5012L154.46 49.967C154.793 49.6342 155.173 49.349 155.554 49.0162Z" fill="#004871"/>
<path d="M168.727 39.6503L164.304 32.2337L163.068 32.9468L167.491 40.3635C167.919 40.1257 168.299 39.888 168.727 39.6503Z" fill="#004871"/>
<path d="M164.162 42.5029L159.311 35.3715L158.122 36.1797L162.973 43.3111C163.353 43.0258 163.781 42.7881 164.162 42.5029Z" fill="#004871"/>
<path d="M159.739 45.6407L154.413 38.8421L153.271 39.6979L158.597 46.4964C158.978 46.2112 159.358 45.8784 159.739 45.5931" fill="#004871"/>
<path d="M188.605 31.2829L186.18 23.0105L184.801 23.3908L187.226 31.6632C187.702 31.5206 188.13 31.3779 188.605 31.2829Z" fill="#004871"/>
<path d="M209.958 28.0975L209.672 19.4923H208.246L208.531 28.1451C209.006 28.1451 209.482 28.1451 209.958 28.0975Z" fill="#004871"/>
<path d="M204.536 28.3828L203.728 19.8251L202.301 19.9678L203.109 28.5729C203.585 28.5254 204.061 28.4779 204.536 28.4303" fill="#004871"/>
<path d="M193.836 29.9992L191.934 21.5842L190.507 21.917L192.41 30.332C192.885 30.2369 193.361 30.0943 193.836 29.9992Z" fill="#004871"/>
<path d="M199.162 29.0008L197.831 20.4907L196.404 20.7284L197.736 29.2385C198.211 29.1434 198.687 29.0959 199.162 29.0008Z" fill="#004871"/>
<path d="M141.145 65.0379L134.011 60.1886L133.203 61.3772L140.336 66.2265C140.622 65.8462 140.859 65.4658 141.145 65.0379Z" fill="#004871"/>
<path d="M129.494 89.237L121.171 86.8124L120.743 88.1911L129.066 90.6157C129.161 90.1403 129.303 89.6649 129.446 89.237" fill="#004871"/>
<path d="M133.25 79.1105L125.309 75.6874L124.738 77.0186L132.68 80.4417C132.87 80.0138 133.06 79.5384 133.25 79.1105Z" fill="#004871"/>
<path d="M128.114 94.4191L119.65 92.565L119.317 93.9437L127.782 95.8454C127.877 95.37 127.972 94.8946 128.114 94.4191Z" fill="#004871"/>
<path d="M131.205 84.15L123.073 81.2023L122.598 82.5335L130.73 85.4336C130.873 85.0057 131.063 84.5303 131.205 84.1024" fill="#004871"/>
<path d="M151.559 52.6769L145.425 46.5915L144.426 47.5899L150.561 53.6753C150.894 53.3425 151.226 53.0097 151.559 52.6769Z" fill="#004871"/>
<path d="M126.307 105.069L117.7 104.26L117.557 105.687L126.165 106.495C126.165 106.019 126.26 105.544 126.307 105.069Z" fill="#004871"/>
<path d="M127.021 99.7439L118.508 98.4127L118.271 99.839L126.83 101.17C126.878 100.695 126.973 100.219 127.068 99.7439" fill="#004871"/>
<path d="M147.85 56.5754L141.383 50.8703L140.431 51.9638L146.899 57.6689C147.232 57.2885 147.517 56.9557 147.85 56.5754Z" fill="#004871"/>
<path d="M144.378 60.7116L137.53 55.4344L136.627 56.5754L143.475 61.8526C143.76 61.4723 144.046 61.0919 144.378 60.7116Z" fill="#004871"/>
<path d="M135.581 74.2612L127.877 70.3627L127.211 71.6463L134.915 75.5448C135.105 75.1169 135.343 74.689 135.581 74.2612Z" fill="#004871"/>
<path d="M138.196 69.5545L130.73 65.133L130.017 66.3691L137.435 70.743C137.673 70.3151 137.911 69.9348 138.196 69.5069" fill="#004871"/>
<path d="M215.331 28.1451L215.617 19.4923H214.19L213.905 28.05C214.38 28.05 214.856 28.05 215.331 28.0975" fill="#004871"/>
<path d="M226.079 29.2385L227.41 20.7284L225.984 20.4907L224.605 29.0008C225.08 29.0959 225.556 29.1434 226.031 29.2385" fill="#004871"/>
<path d="M276.963 57.6689L283.431 51.9638L282.48 50.8703L276.012 56.5754C276.345 56.9557 276.63 57.2885 276.963 57.6689Z" fill="#004871"/>
<path d="M293.132 85.4812L301.264 82.5811L300.789 81.2499L292.657 84.15C292.799 84.5779 292.99 85.0533 293.132 85.4812Z" fill="#004871"/>
<path d="M291.23 80.4417L299.172 77.0186L298.601 75.6874L290.659 79.1105C290.85 79.5384 291.04 79.9663 291.23 80.4417Z" fill="#004871"/>
<path d="M288.947 75.5448L296.651 71.6463L295.985 70.3627L288.281 74.2612C288.519 74.689 288.709 75.1169 288.947 75.5448Z" fill="#004871"/>
<path d="M283.526 66.2265L290.707 61.3772L289.898 60.1886L282.718 65.0379C283.003 65.4183 283.241 65.8462 283.526 66.2265Z" fill="#004871"/>
<path d="M280.387 61.8526L287.235 56.5754L286.379 55.4344L279.531 60.7116C279.817 61.0919 280.149 61.4723 280.435 61.8526" fill="#004871"/>
<path d="M286.379 70.7906L293.846 66.4167L293.132 65.1806L285.666 69.602C285.904 70.0299 286.142 70.4102 286.379 70.8381" fill="#004871"/>
<path d="M297.698 106.495L306.305 105.687L306.162 104.26L297.555 105.069C297.602 105.544 297.65 106.019 297.698 106.495Z" fill="#004871"/>
<path d="M297.983 111.867L306.59 111.582V110.156L297.935 110.441C297.935 110.916 297.935 111.392 297.935 111.867" fill="#004871"/>
<path d="M297.079 101.123L305.592 99.7914L305.354 98.3652L296.842 99.6963C296.937 100.172 296.984 100.647 297.079 101.123Z" fill="#004871"/>
<path d="M294.797 90.6157L303.119 88.1911L302.738 86.8124L294.416 89.237C294.559 89.7124 294.702 90.1403 294.797 90.6157Z" fill="#004871"/>
<path d="M296.081 95.8454L304.498 93.9437L304.165 92.565L295.748 94.4191C295.843 94.8946 295.938 95.37 296.081 95.8454Z" fill="#004871"/>
<path d="M265.265 46.4964L270.543 39.6979L269.402 38.8421L264.123 45.6407C264.504 45.9259 264.884 46.2112 265.265 46.544" fill="#004871"/>
<path d="M236.636 31.7107L239.062 23.3908L237.682 23.0105L235.257 31.3304C235.733 31.473 236.161 31.6157 236.636 31.7107Z" fill="#004871"/>
<path d="M241.772 33.4223L244.721 25.2925L243.389 24.8171L240.441 32.9468C240.916 33.137 241.344 33.2796 241.82 33.4223" fill="#004871"/>
<path d="M231.405 30.332L233.307 21.917L231.881 21.5842L229.979 29.9992C230.454 30.0943 230.882 30.1894 231.358 30.2845" fill="#004871"/>
<path d="M273.302 53.7229L279.389 47.6374L278.39 46.639L272.255 52.7245C272.588 53.0573 272.921 53.3901 273.302 53.7229Z" fill="#004871"/>
<path d="M125.927 110.441L117.272 110.156V111.582L125.879 111.867C125.879 111.392 125.879 110.916 125.879 110.441" fill="#004871"/>
<path d="M246.766 35.419L250.19 27.4795L248.858 26.909L245.434 34.8485C245.862 35.0387 246.338 35.2289 246.766 35.419Z" fill="#004871"/>
<path d="M269.402 49.967L275.109 43.5012L274.015 42.5504L268.308 49.0162C268.689 49.349 269.021 49.6342 269.402 49.967Z" fill="#004871"/>
<path d="M251.664 37.7486L255.611 30.0468L254.327 29.3812L250.38 37.083C250.808 37.2732 251.236 37.5109 251.664 37.7486Z" fill="#004871"/>
<path d="M220.753 28.5254L221.561 19.9202L220.134 19.7776L219.326 28.3828C219.801 28.3828 220.277 28.4779 220.753 28.5254Z" fill="#004871"/>
<path d="M260.89 43.3111L265.74 36.1797L264.551 35.3715L259.701 42.5029C260.081 42.7881 260.509 43.0258 260.89 43.3111Z" fill="#004871"/>
<path d="M256.372 40.411L260.747 32.9944L259.511 32.2812L255.088 39.6979C255.516 39.9356 255.896 40.1733 256.324 40.4585" fill="#004871"/>
<path d="M295.748 133.261L304.165 135.115L304.498 133.737L296.081 131.835C295.986 132.31 295.843 132.786 295.748 133.261Z" fill="#004871"/>
<path d="M255.135 188.078L259.51 195.447L260.747 194.734L256.372 187.317C255.944 187.555 255.563 187.792 255.135 188.078Z" fill="#004871"/>
<path d="M272.303 175.051L278.39 181.136L279.389 180.138L273.302 174.053C272.969 174.385 272.636 174.718 272.303 175.051Z" fill="#004871"/>
<path d="M250.38 190.597L254.327 198.252L255.611 197.586L251.664 189.932C251.236 190.169 250.808 190.36 250.38 190.597Z" fill="#004871"/>
<path d="M245.481 192.879L248.905 200.771L250.237 200.201L246.813 192.309C246.385 192.499 245.957 192.689 245.481 192.879Z" fill="#004871"/>
<path d="M264.123 182.087L269.402 188.886L270.543 188.03L265.265 181.232C264.884 181.517 264.504 181.802 264.123 182.087Z" fill="#004871"/>
<path d="M268.308 178.664L274.015 185.13L275.109 184.179L269.402 177.761C269.021 178.046 268.689 178.379 268.308 178.712" fill="#004871"/>
<path d="M213.905 199.63L214.19 208.236H215.617L215.331 199.63C214.856 199.63 214.38 199.63 213.905 199.63Z" fill="#004871"/>
<path d="M219.326 199.345L220.134 207.903L221.561 207.76L220.753 199.203C220.277 199.25 219.801 199.298 219.326 199.345Z" fill="#004871"/>
<path d="M224.7 198.727L226.031 207.19L227.458 206.952L226.126 198.489C225.651 198.584 225.175 198.68 224.7 198.727Z" fill="#004871"/>
<path d="M235.257 196.445L237.682 204.67L239.062 204.29L236.636 196.065C236.161 196.207 235.733 196.35 235.257 196.445Z" fill="#004871"/>
<path d="M230.026 197.729L231.881 206.096L233.307 205.811L231.405 197.443C230.93 197.539 230.454 197.634 229.979 197.776" fill="#004871"/>
<path d="M240.393 194.829L243.341 202.911L244.673 202.435L241.772 194.353C241.344 194.496 240.869 194.686 240.393 194.829Z" fill="#004871"/>
<path d="M259.701 185.225L264.551 192.356L265.74 191.548L260.89 184.464C260.509 184.75 260.081 184.987 259.701 185.273" fill="#004871"/>
<path d="M296.842 127.984L305.402 129.315L305.639 127.889L297.127 126.558C297.032 127.033 296.984 127.509 296.889 127.984" fill="#004871"/>
<path d="M294.369 138.491L302.691 140.868L303.071 139.489L294.749 137.112C294.606 137.588 294.464 138.015 294.369 138.491Z" fill="#004871"/>
<path d="M297.935 117.239L306.59 117.525V116.098L298.03 115.813C298.03 116.289 298.03 116.764 297.983 117.239" fill="#004871"/>
<path d="M297.555 122.659L306.162 123.468L306.305 122.041L297.698 121.233C297.698 121.708 297.602 122.184 297.555 122.659Z" fill="#004871"/>
<path d="M292.657 143.578L300.789 146.478L301.264 145.147L293.132 142.247C292.99 142.722 292.799 143.15 292.657 143.578Z" fill="#004871"/>
<path d="M285.666 158.173L293.085 162.547L293.798 161.311L286.379 156.937C286.142 157.365 285.904 157.746 285.666 158.173Z" fill="#004871"/>
<path d="M282.718 162.69L289.851 167.539L290.659 166.351L283.526 161.501C283.241 161.882 283.003 162.31 282.718 162.69Z" fill="#004871"/>
<path d="M279.531 167.016L286.332 172.246L287.188 171.105L280.387 165.828C280.102 166.208 279.817 166.588 279.484 166.969" fill="#004871"/>
<path d="M288.329 153.467L296.033 157.365L296.699 156.082L288.995 152.183C288.757 152.611 288.567 153.039 288.329 153.467Z" fill="#004871"/>
<path d="M290.659 148.57L298.601 151.993L299.172 150.662L291.23 147.239C291.04 147.667 290.85 148.142 290.659 148.57Z" fill="#004871"/>
<path d="M276.012 171.105L282.48 176.81L283.431 175.717L276.963 170.059C276.63 170.392 276.345 170.772 276.012 171.105Z" fill="#004871"/>
<path d="M162.925 184.417L158.074 191.548L159.263 192.356L164.114 185.225C163.734 184.94 163.306 184.702 162.925 184.417Z" fill="#004871"/>
<path d="M132.632 147.239L124.69 150.662L125.261 151.993L133.203 148.57C133.013 148.142 132.822 147.714 132.632 147.239Z" fill="#004871"/>
<path d="M150.513 174.005L144.426 180.091L145.425 181.089L151.512 175.003C151.179 174.671 150.846 174.338 150.466 174.005" fill="#004871"/>
<path d="M134.915 152.183L127.211 156.082L127.877 157.365L135.581 153.419C135.343 152.991 135.153 152.563 134.915 152.136" fill="#004871"/>
<path d="M208.483 199.583L208.198 208.188H209.625L209.91 199.63C209.434 199.63 208.959 199.63 208.483 199.583Z" fill="#004871"/>
<path d="M143.475 165.875L136.674 171.153L137.578 172.294L144.378 167.016C144.093 166.636 143.76 166.256 143.475 165.875Z" fill="#004871"/>
<path d="M146.899 170.059L140.431 175.717L141.383 176.81L147.85 171.105C147.517 170.725 147.232 170.392 146.899 170.011" fill="#004871"/>
<path d="M137.483 156.89L130.064 161.264L130.778 162.5L138.244 158.126C138.006 157.698 137.768 157.318 137.483 156.89Z" fill="#004871"/>
<path d="M130.683 142.247L122.551 145.147L123.026 146.478L131.158 143.578C131.015 143.103 130.825 142.675 130.683 142.199" fill="#004871"/>
<path d="M126.165 121.233L117.557 122.041L117.7 123.468L126.307 122.659C126.26 122.184 126.212 121.708 126.165 121.233Z" fill="#004871"/>
<path d="M126.783 126.558L118.271 127.889L118.508 129.315L127.021 127.984C126.926 127.509 126.878 127.033 126.783 126.558Z" fill="#004871"/>
<path d="M129.065 137.112L120.791 139.489L121.219 140.868L129.493 138.491C129.351 138.015 129.208 137.588 129.113 137.112" fill="#004871"/>
<path d="M127.734 131.883L119.317 133.784L119.65 135.21L128.067 133.356C127.972 132.881 127.829 132.405 127.734 131.93" fill="#004871"/>
<path d="M140.336 161.501L133.203 166.351L134.011 167.539L141.145 162.69C140.859 162.31 140.622 161.882 140.336 161.501Z" fill="#004871"/>
<path d="M192.457 197.396L190.555 205.811L191.982 206.096L193.836 197.729C193.361 197.634 192.885 197.539 192.41 197.396" fill="#004871"/>
<path d="M187.226 196.017L184.848 204.29L186.227 204.67L188.653 196.398C188.177 196.255 187.749 196.112 187.273 196.017" fill="#004871"/>
<path d="M182.09 194.306L179.142 202.388L180.473 202.863L183.422 194.781C182.946 194.638 182.518 194.448 182.09 194.306Z" fill="#004871"/>
<path d="M197.736 198.489L196.404 206.952L197.831 207.19L199.162 198.68C198.687 198.584 198.211 198.537 197.736 198.442" fill="#004871"/>
<path d="M203.109 199.203L202.301 207.76L203.728 207.903L204.536 199.345C204.061 199.345 203.585 199.25 203.109 199.203Z" fill="#004871"/>
<path d="M158.598 181.232L153.319 188.03L154.46 188.886L159.739 182.087C159.358 181.802 158.978 181.517 158.598 181.232Z" fill="#004871"/>
<path d="M125.879 115.813L117.272 116.098V117.525L125.927 117.239C125.927 116.764 125.927 116.289 125.879 115.813Z" fill="#004871"/>
<path d="M154.46 177.761L148.753 184.179L149.847 185.13L155.554 178.712C155.173 178.379 154.841 178.046 154.46 177.761Z" fill="#004871"/>
<path d="M167.49 187.317L163.115 194.686L164.352 195.399L168.727 188.03C168.299 187.792 167.918 187.555 167.49 187.317Z" fill="#004871"/>
<path d="M177.097 192.309L173.673 200.201L175.004 200.771L178.428 192.879C177.953 192.689 177.525 192.499 177.097 192.309Z" fill="#004871"/>
<path d="M172.198 189.979L168.299 197.634L169.583 198.299L173.482 190.645C173.054 190.455 172.626 190.217 172.198 189.979Z" fill="#004871"/>
<path d="M184.991 144.624L209.339 154.655V120.33L184.991 144.624Z" fill="#004871"/>
<path d="M231.833 167.587L214.76 160.503V184.559L231.833 167.587Z" fill="#004871"/>
<path d="M242.961 140.773L253.09 116.479H218.613L242.961 140.773Z" fill="#004871"/>
<path d="M265.645 94.0863L258.559 111.106H282.718L265.645 94.0863Z" fill="#004871"/>
<path d="M239.156 82.9614L214.76 72.8824V107.256L239.156 82.9614Z" fill="#004871"/>
<path d="M192.267 60.1411L209.339 67.1773V43.1209L192.267 60.1411Z" fill="#004871"/>
<path d="M181.139 86.7648L171.057 111.059L205.535 111.106L181.139 86.7648Z" fill="#004871"/>
<path d="M158.217 133.499L165.303 116.479H141.145L158.217 133.499Z" fill="#004871"/>
<path d="M181.091 79.1105L186.037 67.2249H169.155L181.091 79.1105Z" fill="#004871"/>
<path d="M258.987 87.6206L247.051 82.7237L258.987 70.7906V87.6206Z" fill="#004871"/>
<path d="M243.199 148.38L238.253 160.313H255.135L243.199 148.38Z" fill="#004871"/>
<path d="M165.303 139.87L177.287 144.814L165.303 156.7V139.87Z" fill="#004871"/>
<path d="M418.536 356.615V312.211C418.536 304.747 416.872 295.476 402.652 295.476C392.38 295.476 384.106 302.179 384.106 311.973V356.663H377.115V266.332H384.106V297.805C388.291 291.197 395.9 288.677 402.652 288.677C417.49 288.677 425.527 297.568 425.527 312.258V356.663H418.536V356.615Z" fill="#004871"/>
<path d="M90.593 289.39C75.8508 289.39 65.9592 298.756 65.9592 313.304V335.554C65.9592 350.435 75.613 359.563 90.593 359.563C104.574 359.563 114.228 350.958 114.989 337.456H107.998C107.38 347.107 100.77 352.622 90.593 352.622C76.3739 352.622 72.9499 343.256 72.9499 335.554V326.188H115.084V313.352C115.084 298.566 105.43 289.438 90.593 289.438M108.093 319.247H72.9023V313.352C72.9023 302.56 79.6077 296.379 90.5454 296.379C104.622 296.379 108.046 305.65 108.046 313.352V319.247H108.093Z" fill="#004871"/>
<path d="M127.496 312.211C127.496 297.615 136.769 288.63 151.607 288.63C158.455 288.63 164.161 290.912 168.869 296.474V266.285H175.86V356.615H168.869V350.007C165.208 355.332 158.455 357.851 151.607 357.851C137.007 357.851 127.496 348.581 127.496 334.128V312.163V312.211ZM134.487 334.175C134.487 344.825 140.859 351.053 151.607 351.053C165.826 351.053 168.869 341.782 168.869 334.175V312.211C168.869 301.561 162.545 295.476 151.607 295.476C137.53 295.476 134.487 304.604 134.487 312.211V334.175Z" fill="#004871"/>
<path d="M190.46 312.211C190.46 297.615 199.733 288.63 214.57 288.63C221.418 288.63 227.125 290.912 231.833 296.522V290.104L238.824 289.913V356.663H231.833V350.054C228.171 355.379 221.418 357.899 214.57 357.899C199.971 357.899 190.46 348.628 190.46 334.175V312.211ZM197.45 332.701C197.45 342.971 203.87 351.053 214.665 351.053C228.885 351.053 231.881 340.023 231.881 332.701V311.593C231.881 301.324 225.556 295.476 214.618 295.476C200.541 295.476 197.498 304.271 197.498 311.593V332.701H197.45Z" fill="#004871"/>
<path d="M314.152 312.211C314.152 297.615 323.425 288.63 338.262 288.63C345.11 288.63 350.817 290.912 355.525 296.522V290.104L362.516 289.913V356.663H355.525V350.054C351.863 355.379 345.11 357.899 338.262 357.899C323.663 357.899 314.152 348.628 314.152 334.175V312.211ZM321.142 332.702C321.142 342.971 327.562 351.053 338.357 351.053C352.576 351.053 355.573 340.023 355.573 332.702V311.593C355.573 301.324 349.248 295.476 338.31 295.476C324.233 295.476 321.19 304.271 321.19 311.593V332.702H321.142Z" fill="#004871"/>
<path d="M43.1801 357.233V313.066H5.46852V357.233H-1.47461V266.713H5.46852V306.22H43.1801V266.713H50.1707V357.233H43.1801Z" fill="#004871"/>
<path d="M301.407 289.913H294.416L294.368 334.556C294.368 344.349 286.094 351.053 275.822 351.005C261.603 351.005 259.938 341.735 259.986 334.223V289.818H253.09V334.223C252.995 348.961 260.984 357.851 275.822 357.851C282.527 357.851 290.136 355.332 294.321 348.818V363.414C294.321 371.116 290.897 380.482 276.678 380.482C266.501 380.482 259.938 374.967 259.272 365.316H252.282C253.043 378.818 262.696 387.423 276.678 387.423C291.658 387.423 301.312 378.295 301.312 363.414L301.407 289.913Z" fill="#004871"/>
<path d="M427.429 402.874H-1.47461V406.582H427.429V402.874Z" fill="#004871"/>
<path d="M24.8243 446.138H20.6394C20.2114 443.998 19.403 442.429 18.3092 441.431C16.8825 440.1 14.7901 439.482 12.0318 439.482C8.70296 439.482 6.08741 440.813 4.2803 443.428C2.71097 445.71 1.90252 448.752 1.90252 452.461C1.90252 456.644 2.94874 459.925 5.08874 462.254C6.99096 464.251 9.36873 465.25 12.3647 465.25C15.979 465.25 18.4518 463.918 19.831 461.256C20.4492 460.02 20.9723 458.404 21.3052 456.359H25.4901C24.4914 464.679 20.1163 468.863 12.3647 468.863C8.17984 468.863 4.89852 467.627 2.47319 465.202C-0.617925 462.064 -2.18726 457.881 -2.18726 452.603C-2.18726 447.326 -0.71304 443.238 2.28296 439.957C4.70829 437.247 8.08474 435.868 12.4123 435.868C19.403 435.868 23.5403 439.291 24.8243 446.185V446.138Z" fill="#004871"/>
<path d="M39.5665 444.901C43.038 444.901 45.6536 446.09 47.5082 448.515C49.1251 450.607 49.9336 453.459 49.9336 457.025C49.9336 461.018 48.8873 464.061 46.7949 466.153C44.9878 467.96 42.61 468.863 39.5665 468.863C36.0473 468.863 33.3367 467.674 31.5296 465.345C29.9127 463.3 29.1042 460.495 29.1042 457.025C29.1042 452.984 30.1505 449.846 32.2905 447.659C34.0976 445.805 36.5705 444.901 39.614 444.901H39.5665ZM39.5665 448.277C37.474 448.277 35.8571 449.038 34.6207 450.607C33.4318 452.175 32.8136 454.315 32.8136 457.025C32.8136 459.735 33.4793 462.017 34.8109 463.491C35.9998 464.822 37.5216 465.44 39.4714 465.44C41.5162 465.44 43.1331 464.679 44.2744 463.205C45.4158 461.731 45.9864 459.64 45.9864 456.977C45.9864 454.03 45.3207 451.795 44.0367 450.274C42.8954 448.895 41.3736 448.229 39.5189 448.229L39.5665 448.277Z" fill="#004871"/>
<path d="M73.0931 468.387H69.4789V464.774C67.862 467.532 65.3891 468.91 62.1553 468.91C59.9202 468.91 58.1131 468.34 56.8291 467.246C55.5451 466.153 54.8318 464.632 54.8318 462.73V445.424H58.446V461.256C58.446 462.587 58.874 463.681 59.73 464.489C60.586 465.297 61.7749 465.677 63.2016 465.677C65.1038 465.677 66.6256 464.964 67.7669 463.586C68.9082 462.207 69.4789 460.305 69.4789 457.976V445.424H73.0931V468.435V468.387Z" fill="#004871"/>
<path d="M79.418 445.377H82.842V449.275C84.6966 446.375 87.2171 444.901 90.4509 444.901C92.686 444.901 94.4455 445.472 95.7771 446.565C97.1086 447.659 97.7269 449.18 97.7269 451.082V468.387H94.1127V452.556C94.1127 451.177 93.6846 450.084 92.8286 449.275C91.9726 448.467 90.8313 448.087 89.3571 448.087C87.4549 448.087 85.9331 448.8 84.7918 450.179C83.6504 451.557 83.0798 453.459 83.0798 455.789V468.387H79.418V445.377Z" fill="#004871"/>
<path d="M112.85 445.377V448.325H108.142V463.633C108.142 464.156 108.332 464.632 108.712 465.012C109.093 465.392 109.568 465.582 110.186 465.582C110.757 465.582 111.613 465.44 112.802 465.202L113.183 468.435C111.328 468.768 109.949 468.91 108.998 468.91C106.049 468.91 104.575 467.722 104.575 465.297V448.372H101.436V445.424H104.575V440.718L108.189 439.054V445.424H112.897L112.85 445.377Z" fill="#004871"/>
<path d="M136.58 457.976H119.603C119.603 459.925 120.031 461.494 120.839 462.682C122.123 464.584 123.978 465.487 126.403 465.487C129.399 465.487 131.396 464.061 132.443 461.256H136.104C135.629 463.681 134.535 465.535 132.775 466.914C131.063 468.245 128.876 468.91 126.26 468.91C122.789 468.91 120.078 467.722 118.271 465.345C116.654 463.253 115.798 460.495 115.798 457.072C115.798 453.126 116.892 450.036 119.032 447.802C120.934 445.9 123.359 444.949 126.308 444.949C128.495 444.949 130.398 445.472 132.062 446.518C133.727 447.564 134.915 448.99 135.629 450.797C136.247 452.366 136.58 454.695 136.58 457.881V458.023V457.976ZM132.633 454.98C132.633 452.984 132.062 451.367 130.873 450.131C129.684 448.895 128.163 448.277 126.308 448.277C124.453 448.277 122.884 448.895 121.743 450.084C120.601 451.272 119.888 452.936 119.745 454.98H132.633Z" fill="#004871"/>
<path d="M141.573 445.377H144.997V449.561C146.329 446.375 148.469 444.806 151.37 444.806C151.75 444.806 152.178 444.806 152.654 444.949V448.705C150.276 448.705 148.611 449.085 147.708 449.751C146.043 450.939 145.235 453.174 145.235 456.407V468.34H141.573V445.329V445.377Z" fill="#004871"/>
<path d="M157.932 436.391C158.55 436.391 159.074 436.629 159.502 437.057C159.93 437.485 160.167 438.008 160.167 438.626C160.167 439.244 159.977 439.767 159.502 440.195C159.074 440.623 158.55 440.86 157.932 440.86C157.362 440.86 156.838 440.623 156.41 440.195C155.982 439.767 155.745 439.244 155.745 438.626C155.745 438.008 155.982 437.532 156.41 437.057C156.838 436.582 157.362 436.391 157.932 436.391ZM159.692 445.377V468.387H156.078V445.377H159.692Z" fill="#004871"/>
<path d="M166.017 445.377H169.441V449.275C171.295 446.375 173.816 444.901 177.05 444.901C179.285 444.901 181.044 445.472 182.376 446.565C183.707 447.659 184.326 449.18 184.326 451.082V468.387H180.711V452.556C180.711 451.177 180.284 450.084 179.428 449.275C178.572 448.467 177.43 448.087 175.956 448.087C174.054 448.087 172.532 448.8 171.391 450.179C170.249 451.557 169.679 453.459 169.679 455.789V468.387H166.017V445.377Z" fill="#004871"/>
<path d="M205.44 445.377H208.817V464.632C208.817 469.624 208.008 473.094 206.391 474.996C204.775 476.993 202.159 477.943 198.45 477.943C195.596 477.943 193.361 477.278 191.744 475.899C190.318 474.663 189.509 473.047 189.319 471.002H193.076C193.266 472.191 193.694 473.094 194.407 473.617C195.454 474.425 196.833 474.806 198.592 474.806C200.97 474.806 202.682 474.093 203.681 472.666C204.537 471.43 204.965 469.338 204.965 466.391V464.917C203.062 467.532 200.78 468.815 198.069 468.815C195.359 468.815 193.219 467.817 191.411 465.868C189.462 463.728 188.51 460.876 188.51 457.167C188.51 453.221 189.509 450.084 191.554 447.754C193.361 445.805 195.596 444.806 198.307 444.806C201.208 444.806 203.586 446.138 205.345 448.752V445.329L205.44 445.377ZM198.83 448.229C196.88 448.229 195.311 448.99 194.17 450.559C193.028 452.128 192.458 454.267 192.458 456.977C192.458 459.687 193.123 461.969 194.407 463.443C195.501 464.774 197.023 465.392 198.878 465.392C200.732 465.392 202.397 464.632 203.443 463.158C204.537 461.684 205.06 459.592 205.06 456.93C205.06 453.982 204.442 451.748 203.158 450.226C202.064 448.847 200.59 448.182 198.783 448.182L198.83 448.229Z" fill="#004871"/>
<path d="M228.029 453.792V464.774H246.909V468.387H223.939V436.344H246.148V439.957H228.029V450.179H245.482V453.792H228.029Z" fill="#004871"/>
<path d="M262.174 456.502L270.163 468.387H265.931L260.177 459.545L254.327 468.387H250.143L258.275 456.644L250.523 445.377H254.708L260.272 453.697L265.836 445.377H269.973L262.222 456.454L262.174 456.502Z" fill="#004871"/>
<path d="M283.384 445.377V448.325H278.676V463.633C278.676 464.156 278.866 464.632 279.246 465.012C279.627 465.392 280.102 465.582 280.721 465.582C281.291 465.582 282.147 465.44 283.336 465.202L283.717 468.435C281.862 468.768 280.483 468.91 279.532 468.91C276.583 468.91 275.109 467.722 275.109 465.297V448.372H271.97V445.424H275.109V440.718L278.723 439.054V445.424H283.431L283.384 445.377Z" fill="#004871"/>
<path d="M287.664 445.377H291.088V449.561C292.419 446.375 294.559 444.806 297.46 444.806C297.841 444.806 298.269 444.806 298.744 444.949V448.705C296.366 448.705 294.702 449.085 293.798 449.751C292.134 450.939 291.326 453.174 291.326 456.407V468.34H287.664V445.329V445.377Z" fill="#004871"/>
<path d="M321.761 457.976H304.784C304.784 459.925 305.212 461.494 306.02 462.682C307.304 464.584 309.159 465.487 311.584 465.487C314.58 465.487 316.578 464.061 317.624 461.256H321.286C320.81 463.681 319.716 465.535 317.957 466.914C316.245 468.245 314.057 468.91 311.442 468.91C307.97 468.91 305.259 467.722 303.452 465.345C301.835 463.253 300.979 460.495 300.979 457.072C300.979 453.126 302.073 450.036 304.213 447.802C306.115 445.9 308.541 444.949 311.489 444.949C313.677 444.949 315.579 445.472 317.243 446.518C318.908 447.564 320.097 448.99 320.81 450.797C321.428 452.366 321.761 454.695 321.761 457.881V458.023V457.976ZM317.814 454.98C317.814 452.984 317.243 451.367 316.055 450.131C314.866 448.895 313.344 448.277 311.489 448.277C309.635 448.277 308.065 448.895 306.924 450.084C305.783 451.272 305.069 452.936 304.927 454.98H317.814Z" fill="#004871"/>
<path d="M326.754 445.377H330.178V448.705C331.985 446.185 334.316 444.901 337.264 444.901C340.213 444.901 342.162 446.043 343.446 448.277C344.54 446.993 345.634 446.09 346.633 445.615C347.679 445.139 348.915 444.854 350.437 444.854C354.907 444.854 357.142 446.946 357.142 451.177V468.34H353.481V452.603C353.481 449.561 352.054 448.039 349.201 448.039C347.726 448.039 346.442 448.61 345.396 449.798C344.35 450.987 343.827 452.366 343.827 453.982V468.387H340.165V452.651C340.165 449.608 338.738 448.087 335.933 448.087C334.411 448.087 333.127 448.657 332.081 449.798C331.034 450.939 330.511 452.366 330.511 453.982V468.387H326.85V445.377H326.754Z" fill="#004871"/>
<path d="M365.084 436.391C365.703 436.391 366.226 436.629 366.654 437.057C367.082 437.485 367.319 438.008 367.319 438.626C367.319 439.244 367.129 439.767 366.654 440.195C366.226 440.623 365.703 440.86 365.084 440.86C364.514 440.86 363.991 440.623 363.563 440.195C363.135 439.767 362.897 439.244 362.897 438.626C362.897 438.008 363.135 437.532 363.563 437.057C363.991 436.582 364.514 436.391 365.084 436.391ZM366.844 445.377V468.387H363.23V445.377H366.844Z" fill="#004871"/>
<path d="M389.48 451.7H385.438C385.295 449.418 383.774 448.277 380.825 448.277C379.303 448.277 378.115 448.562 377.211 449.133C376.307 449.703 375.879 450.511 375.879 451.462C375.879 452.936 377.306 454.03 380.112 454.695L383.631 455.503C385.914 456.026 387.578 456.787 388.577 457.785C389.575 458.784 390.099 460.115 390.099 461.827C390.099 464.014 389.243 465.725 387.531 467.009C385.819 468.292 383.536 468.91 380.635 468.91C377.449 468.91 375.071 468.15 373.407 466.676C372.027 465.44 371.314 463.823 371.219 461.779H375.404C375.642 462.825 375.975 463.586 376.403 464.061C377.211 465.012 378.733 465.487 380.92 465.487C382.585 465.487 383.869 465.202 384.82 464.584C385.771 463.966 386.294 463.158 386.294 462.159C386.294 460.638 385.105 459.592 382.775 459.022L379.303 458.213C376.688 457.595 374.833 456.835 373.787 455.979C372.598 454.98 371.98 453.554 371.98 451.748C371.98 449.656 372.788 447.992 374.358 446.803C375.975 445.567 378.115 444.949 380.778 444.949C383.441 444.949 385.771 445.662 387.293 447.041C388.624 448.277 389.29 449.846 389.29 451.748L389.48 451.7Z" fill="#004871"/>
<path d="M395.139 445.377H398.563V448.705C400.371 446.185 402.701 444.901 405.649 444.901C408.598 444.901 410.547 446.043 411.831 448.277C412.925 446.993 414.019 446.09 415.018 445.615C416.064 445.139 417.3 444.854 418.822 444.854C423.292 444.854 425.527 446.946 425.527 451.177V468.34H421.866V452.603C421.866 449.561 420.439 448.039 417.586 448.039C416.111 448.039 414.827 448.61 413.781 449.798C412.735 450.987 412.212 452.366 412.212 453.982V468.387H408.55V452.651C408.55 449.608 407.123 448.087 404.318 448.087C402.796 448.087 401.512 448.657 400.466 449.798C399.419 450.939 398.896 452.366 398.896 453.982V468.387H395.235V445.377H395.139Z" fill="#004871"/>
<path d="M39.2813 515.026H42.7528C42.7528 517.166 41.7542 519.686 39.8995 522.681L45.6537 529.812H40.8982L37.712 525.866C36.2853 527.245 35.144 528.243 34.3355 528.719C32.6711 529.765 30.7689 530.288 28.5813 530.288C25.6804 530.288 23.4928 529.384 21.9711 527.625C20.6871 526.056 20.0688 524.06 20.0688 521.587C20.0688 517.784 22.2564 514.646 26.6791 512.221C25.3 510.51 24.3964 509.131 23.8733 508.133C23.3977 507.134 23.1124 506.136 23.1124 505.09C23.1124 502.998 23.9208 501.287 25.5853 499.956C26.9644 498.767 28.6764 498.149 30.6262 498.149C32.8137 498.149 34.6208 498.862 36 500.336C37.1888 501.62 37.7595 503.188 37.7595 505.043C37.7595 506.611 37.3315 507.99 36.428 509.084C35.5244 510.177 33.9551 511.413 31.7199 512.697L37.5693 519.876C37.5693 519.876 37.7595 519.543 37.9497 519.21C38.8533 517.499 39.2813 516.12 39.2813 515.074V515.026ZM28.5813 514.504C27.3924 514.931 26.2986 515.835 25.2524 517.308C24.2062 518.782 23.6831 520.066 23.6831 521.255C23.6831 522.871 24.1586 524.202 25.2049 525.248C26.2035 526.294 27.4875 526.817 28.9617 526.817C31.1017 526.817 33.2893 525.628 35.6195 523.251L28.5337 514.504H28.5813ZM29.7702 510.32L30.3408 509.939C32.9564 508.323 34.2879 506.611 34.2879 504.947C34.2879 503.854 33.9075 502.998 33.1942 502.238C32.4809 501.524 31.5773 501.144 30.4835 501.144C29.2946 501.144 28.3911 501.477 27.7253 502.19C27.0595 502.903 26.6791 503.806 26.6791 504.947C26.6791 505.756 26.8217 506.421 27.1546 506.992C27.4875 507.562 28.3435 508.656 29.7702 510.272V510.32Z" fill="#004871"/>
<path d="M72.0471 529.812H67.6244L56.116 497.769H60.4911L69.9546 524.868L78.8 497.769H83.1275L72.0471 529.812Z" fill="#004871"/>
<path d="M88.9293 497.816C89.5475 497.816 90.0706 498.054 90.4986 498.482C90.9266 498.91 91.1644 499.433 91.1644 500.051C91.1644 500.669 90.9741 501.192 90.4986 501.62C90.0706 502.047 89.5475 502.285 88.9293 502.285C88.3586 502.285 87.8355 502.047 87.4075 501.62C86.9795 501.192 86.7417 500.669 86.7417 500.051C86.7417 499.433 86.9795 498.957 87.4075 498.482C87.8355 498.006 88.3586 497.816 88.9293 497.816ZM90.6888 506.802V529.812H87.0746V506.802H90.6888Z" fill="#004871"/>
<path d="M105.954 506.279C109.426 506.279 112.041 507.467 113.896 509.892C115.513 511.984 116.321 514.836 116.321 518.402C116.321 522.396 115.275 525.438 113.183 527.53C111.376 529.337 108.998 530.24 105.954 530.24C102.435 530.24 99.7244 529.051 97.9173 526.722C96.3004 524.678 95.4919 521.873 95.4919 518.402C95.4919 514.361 96.5382 511.223 98.6782 509.036C100.485 507.182 102.958 506.279 106.002 506.279H105.954ZM105.954 509.654C103.862 509.654 102.245 510.415 101.008 511.984C99.8195 513.553 99.2013 515.692 99.2013 518.402C99.2013 521.112 99.867 523.394 101.199 524.868C102.387 526.199 103.909 526.817 105.859 526.817C107.904 526.817 109.521 526.056 110.662 524.582C111.803 523.109 112.374 521.017 112.374 518.354C112.374 515.407 111.708 513.172 110.424 511.651C109.283 510.272 107.761 509.607 105.907 509.607L105.954 509.654Z" fill="#004871"/>
<path d="M124.976 497.769V529.812H121.314V497.769H124.976Z" fill="#004871"/>
<path d="M150.609 519.353H133.631C133.631 521.302 134.059 522.871 134.868 524.06C136.152 525.961 138.006 526.865 140.432 526.865C143.428 526.865 145.425 525.438 146.471 522.633H150.133C149.658 525.058 148.564 526.912 146.804 528.291C145.092 529.622 142.905 530.288 140.289 530.288C136.818 530.288 134.107 529.099 132.3 526.722C130.683 524.63 129.827 521.873 129.827 518.45C129.827 514.504 130.921 511.413 133.061 509.179C134.963 507.277 137.388 506.326 140.337 506.326C142.524 506.326 144.426 506.849 146.091 507.895C147.755 508.941 148.944 510.367 149.658 512.174C150.276 513.743 150.609 516.072 150.609 519.258V519.4V519.353ZM146.662 516.358C146.662 514.361 146.091 512.744 144.902 511.508C143.713 510.272 142.191 509.654 140.337 509.654C138.482 509.654 136.913 510.272 135.771 511.461C134.63 512.649 133.917 514.313 133.774 516.358H146.662Z" fill="#004871"/>
<path d="M155.602 506.802H159.026V510.7C160.881 507.8 163.401 506.326 166.635 506.326C168.87 506.326 170.63 506.897 171.961 507.99C173.293 509.084 173.911 510.605 173.911 512.507V529.812H170.297V513.981C170.297 512.602 169.869 511.508 169.013 510.7C168.157 509.892 167.015 509.512 165.541 509.512C163.639 509.512 162.117 510.225 160.976 511.603C159.834 512.982 159.264 514.884 159.264 517.213V529.812H155.602V506.802Z" fill="#004871"/>
<path d="M189.034 506.802V509.749H184.326V525.058C184.326 525.581 184.516 526.056 184.896 526.437C185.277 526.817 185.752 527.007 186.371 527.007C186.941 527.007 187.797 526.865 188.986 526.627L189.367 529.86C187.512 530.193 186.133 530.335 185.182 530.335C182.233 530.335 180.759 529.147 180.759 526.722V509.797H177.62V506.849H180.759V502.143L184.373 500.479V506.849H189.081L189.034 506.802Z" fill="#004871"/>
<path d="M206.487 515.217V526.199H225.366V529.812H202.397V497.769H224.605V501.382H206.487V511.603H223.939V515.217H206.487Z" fill="#004871"/>
<path d="M240.679 517.879L248.668 529.765H244.436L238.682 520.922L232.832 529.765H228.647L236.779 518.022L229.028 506.754H233.213L238.777 515.074L244.341 506.754H248.478L240.727 517.831L240.679 517.879Z" fill="#004871"/>
<path d="M261.889 506.802V509.749H257.181V525.058C257.181 525.581 257.371 526.056 257.751 526.437C258.132 526.817 258.607 527.007 259.226 527.007C259.796 527.007 260.652 526.865 261.841 526.627L262.222 529.86C260.367 530.193 258.988 530.335 258.037 530.335C255.088 530.335 253.614 529.147 253.614 526.722V509.797H250.475V506.849H253.614V502.143L257.228 500.479V506.849H261.936L261.889 506.802Z" fill="#004871"/>
<path d="M266.121 506.802H269.545V510.985C270.877 507.8 273.017 506.231 275.918 506.231C276.298 506.231 276.726 506.231 277.202 506.374V510.13C274.824 510.13 273.159 510.51 272.256 511.176C270.591 512.364 269.783 514.599 269.783 517.831V529.765H266.121V506.754V506.802Z" fill="#004871"/>
<path d="M300.219 519.353H283.241C283.241 521.302 283.669 522.871 284.478 524.06C285.762 525.961 287.616 526.865 290.042 526.865C293.038 526.865 295.035 525.438 296.081 522.633H299.743C299.267 525.058 298.174 526.912 296.414 528.291C294.702 529.622 292.515 530.288 289.899 530.288C286.427 530.288 283.717 529.099 281.91 526.722C280.293 524.63 279.437 521.873 279.437 518.45C279.437 514.504 280.531 511.413 282.671 509.179C284.573 507.277 286.998 506.326 289.947 506.326C292.134 506.326 294.036 506.849 295.701 507.895C297.365 508.941 298.554 510.367 299.267 512.174C299.886 513.743 300.219 516.072 300.219 519.258V519.4V519.353ZM296.271 516.358C296.271 514.361 295.701 512.744 294.512 511.508C293.323 510.272 291.801 509.654 289.947 509.654C288.092 509.654 286.523 510.272 285.381 511.461C284.24 512.649 283.527 514.313 283.384 516.358H296.271Z" fill="#004871"/>
<path d="M305.259 506.802H308.683V510.13C310.49 507.61 312.821 506.326 315.769 506.326C318.717 506.326 320.667 507.467 321.951 509.702C323.045 508.418 324.139 507.515 325.138 507.039C326.184 506.564 327.42 506.279 328.942 506.279C333.412 506.279 335.647 508.371 335.647 512.602V529.765H331.985V514.028C331.985 510.985 330.559 509.464 327.706 509.464C326.231 509.464 324.947 510.035 323.901 511.223C322.855 512.412 322.332 513.79 322.332 515.407V529.812H318.67V514.076C318.67 511.033 317.243 509.512 314.438 509.512C312.916 509.512 311.632 510.082 310.585 511.223C309.539 512.364 309.016 513.79 309.016 515.407V529.812H305.354V506.802H305.259Z" fill="#004871"/>
<path d="M343.542 497.816C344.16 497.816 344.683 498.054 345.111 498.482C345.539 498.91 345.777 499.433 345.777 500.051C345.777 500.669 345.586 501.192 345.111 501.62C344.683 502.047 344.16 502.285 343.542 502.285C342.971 502.285 342.448 502.047 342.02 501.62C341.592 501.192 341.354 500.669 341.354 500.051C341.354 499.433 341.592 498.957 342.02 498.482C342.448 498.006 342.971 497.816 343.542 497.816ZM345.301 506.802V529.812H341.687V506.802H345.301Z" fill="#004871"/>
<path d="M367.938 513.125H363.895C363.753 510.843 362.231 509.702 359.283 509.702C357.761 509.702 356.572 509.987 355.668 510.557C354.765 511.128 354.337 511.936 354.337 512.887C354.337 514.361 355.763 515.454 358.569 516.12L362.088 516.928C364.371 517.451 366.035 518.212 367.034 519.21C368.033 520.209 368.556 521.54 368.556 523.251C368.556 525.438 367.7 527.15 365.988 528.433C364.276 529.717 361.993 530.335 359.092 530.335C355.906 530.335 353.528 529.574 351.864 528.101C350.485 526.865 349.771 525.248 349.676 523.204H353.861C354.099 524.25 354.432 525.01 354.86 525.486C355.668 526.437 357.19 526.912 359.378 526.912C361.042 526.912 362.326 526.627 363.277 526.009C364.228 525.391 364.751 524.582 364.751 523.584C364.751 522.063 363.563 521.017 361.232 520.446L357.761 519.638C355.145 519.02 353.291 518.259 352.244 517.404C351.055 516.405 350.437 514.979 350.437 513.172C350.437 511.08 351.246 509.416 352.815 508.228C354.432 506.992 356.572 506.374 359.235 506.374C361.898 506.374 364.228 507.087 365.75 508.466C367.082 509.702 367.747 511.271 367.747 513.172L367.938 513.125Z" fill="#004871"/>
<path d="M373.597 506.802H377.021V510.13C378.828 507.61 381.158 506.326 384.106 506.326C387.055 506.326 389.005 507.467 390.289 509.702C391.383 508.418 392.476 507.515 393.475 507.039C394.521 506.564 395.758 506.279 397.279 506.279C401.75 506.279 403.985 508.371 403.985 512.602V529.765H400.323V514.028C400.323 510.985 398.896 509.464 396.043 509.464C394.569 509.464 393.285 510.035 392.238 511.223C391.192 512.412 390.669 513.79 390.669 515.407V529.812H387.007V514.076C387.007 511.033 385.581 509.512 382.775 509.512C381.253 509.512 379.969 510.082 378.923 511.223C377.877 512.364 377.354 513.79 377.354 515.407V529.812H373.692V506.802H373.597Z" fill="#004871"/>
</g>
<defs>
<clipPath id="clip0_266_7">
<rect width="428" height="561" fill="white"/>
</clipPath>
</defs>
</svg>
