<svg width="31" height="26" viewBox="0 0 31 26" fill="none" xmlns="http://www.w3.org/2000/svg">
<path d="M30.8298 3.10619C30.6335 2.87224 30.3062 2.8054 30.0117 2.97251C29.8481 3.07277 29.5208 3.17304 29.1609 3.30672C29.619 2.67171 30.0117 1.93644 30.1753 1.30143C30.2408 1.03405 30.1426 0.733259 29.9135 0.566151C29.6845 0.399043 29.3572 0.399043 29.1282 0.566151C28.7682 0.833524 27.0011 1.60222 25.8885 1.86959C23.3688 -0.369655 20.4237 -0.603606 17.3804 1.20116C14.8934 2.67171 14.3698 5.67966 14.468 7.51785C8.80676 6.94968 5.2726 3.90831 3.27646 1.36827C3.14556 1.20116 2.9165 1.1009 2.72016 1.1009C2.49109 1.1009 2.29475 1.23458 2.19658 1.43511C1.24759 3.03935 0.985801 4.84412 1.44393 6.61546C1.673 7.58469 2.13113 8.42023 2.62198 9.12208C2.39292 8.9884 2.16385 8.85471 1.93479 8.6876C1.73845 8.52049 1.44393 8.48707 1.21487 8.58734C0.985801 8.6876 0.822182 8.95498 0.822182 9.22235C0.822182 12.2637 2.68743 14.269 4.42179 15.3385C4.12727 15.3051 3.86548 15.2382 3.53825 15.138C3.27646 15.0711 3.01467 15.138 2.85105 15.3385C2.68743 15.539 2.62198 15.8398 2.75288 16.0738C3.73459 18.2796 5.56712 19.7836 7.85777 20.3517C5.86163 21.5549 3.17829 22.1231 0.756735 21.8557C0.429498 21.8223 0.134985 22.0228 0.0368141 22.3236C-0.0613569 22.6244 0.0368141 22.9921 0.331327 23.1257C4.0291 25.2647 7.39964 26 10.2793 26C14.5007 26 17.7403 24.3958 19.7365 23.0589C25.0704 19.4494 28.4082 12.9321 27.9501 7.11679C28.8009 6.48178 30.0771 5.2786 30.8952 4.00858C31.0589 3.7412 31.0261 3.40699 30.8298 3.17304V3.10619Z" fill="white"/>
</svg>
